<svg width="16" height="22" viewBox="0 0 16 22" fill="none" xmlns="http://www.w3.org/2000/svg">
<path d="M14 3.5C15.1046 3.5 16 4.39543 16 5.5V19.5C16 20.6046 15.1046 21.5 14 21.5H2C0.895431 21.5 0 20.6046 0 19.5V2C0 0.895431 0.89543 0 2 0H14C14.5523 0 15 0.447715 15 1C15 1.55228 14.5523 2 14 2H3.25C2.83579 2 2.5 2.33579 2.5 2.75C2.5 3.16421 2.83579 3.5 3.25 3.5H6C6.55228 3.5 7 3.94772 7 4.5V13.2929C7 13.7383 7.53857 13.9614 7.85355 13.6464L9.64645 11.8536C9.84171 11.6583 10.1583 11.6583 10.3536 11.8536L12.1464 13.6464C12.4614 13.9614 13 13.7383 13 13.2929V4.5C13 3.94772 13.4477 3.5 14 3.5Z" fill="#27689E"/>
</svg>
