<svg width="25" height="23" viewBox="0 0 25 23" fill="none" xmlns="http://www.w3.org/2000/svg">
<path fill-rule="evenodd" clip-rule="evenodd" d="M13.8208 23C12.0183 23 10.6101 21.5239 10.5192 19.763C10.4797 18.9993 10.4152 18.1839 10.3134 17.5464C10.2761 17.3127 10.1527 16.964 9.92836 16.5213C9.71183 16.0941 9.43672 15.6479 9.15689 15.2336C8.8788 14.8219 8.60701 14.4577 8.4043 14.1961C8.37114 14.1533 8.33992 14.1134 8.31094 14.0766L6.52087 13.5445C6.10168 13.8654 5.5806 14.0556 5.01593 14.0556H2.50796C1.12285 14.0556 0 12.9114 0 11.5V2.55556C0 1.14416 1.12285 0 2.50796 0H5.01593C5.7815 0 6.46696 0.349539 6.92698 0.900541L6.92754 0.900263C8.12343 0.307833 9.43577 0 10.7655 0H20.2932C22.1604 0 23.745 1.39552 24.0155 3.27807L24.9596 9.8495C25.292 12.163 23.5319 14.2381 21.2373 14.2381H18.3998V18.3341C18.3998 20.911 16.3497 23 13.8208 23ZM7.52389 3.4464L8.0241 3.1986C8.87831 2.77544 9.8157 2.55556 10.7655 2.55556H20.2932C20.9156 2.55556 21.4438 3.02073 21.534 3.64825L22.4781 10.2197C22.5889 10.9908 22.0022 11.6825 21.2373 11.6825H17.1458C16.4532 11.6825 15.8918 12.2546 15.8918 12.9603V18.3341C15.8918 19.4996 14.9646 20.4444 13.8208 20.4444C13.4236 20.4444 13.0483 20.1061 13.0237 19.6287C12.9827 18.8363 12.9126 17.9116 12.7888 17.1361C12.6896 16.5144 12.43 15.8878 12.1567 15.3486C11.8755 14.794 11.5383 14.2519 11.2229 13.7848C10.9057 13.3152 10.5993 12.9049 10.3726 12.6124C10.2589 12.4656 10.1643 12.3473 10.0972 12.2645C10.0636 12.2231 10.0369 12.1905 10.018 12.1677L9.99566 12.1408L9.98915 12.133L9.98709 12.1305L9.98638 12.1297L9.9861 12.1293C9.98598 12.1292 9.98586 12.1291 9.0335 12.9603L9.98586 12.1291C9.8274 11.9406 9.61849 11.8032 9.38465 11.7337L7.52389 11.1806V3.4464ZM5.01593 11.5H2.50796V8.94444V5.11111V2.55556H5.01593V2.64683V5.11111V8.94444V11.5Z" fill="#CDD3DB"/>
</svg>
