<svg width="24" height="24" viewBox="0 0 24 24" fill="none" xmlns="http://www.w3.org/2000/svg">
<path fill-rule="evenodd" clip-rule="evenodd" d="M21.8181 11.69C20.8521 16.1296 16.1522 19.4983 10.4999 19.4983C9.68451 19.4983 8.88896 19.4282 8.12158 19.2949C9.67917 20.646 11.9594 21.4983 14.4999 21.4983C15.8975 21.4983 17.2164 21.2403 18.3795 20.7833C18.9454 20.5609 20.8343 21.1849 22.0144 21.6189C22.4107 21.7647 22.82 21.3896 22.7113 20.9817C22.4074 19.8413 22.0069 18.0907 22.2726 17.6331C22.7401 16.8277 22.9999 15.9362 22.9999 14.9983C22.9999 13.7902 22.5689 12.6591 21.8181 11.69Z" fill="#3582C4"/>
<path d="M20 10C20 14.1421 15.7467 17.5 10.5 17.5C9.07102 17.5 7.71574 17.2509 6.5 16.8048C5.85423 16.5678 3.42216 17.2467 2.0178 17.6764C1.61212 17.8006 1.22655 17.397 1.36365 16.9955C1.77292 15.797 2.33908 13.8878 2 13.3531C1.3601 12.3441 1 11.2052 1 10C1 5.85786 5.25329 2.5 10.5 2.5C15.7467 2.5 20 5.85786 20 10Z" fill="#3582C4"/>
</svg>
