<svg width="26" height="23" viewBox="0 0 26 23" fill="none" xmlns="http://www.w3.org/2000/svg">
<path fill-rule="evenodd" clip-rule="evenodd" d="M14.3736 0C12.4991 0 11.0345 1.47608 10.9399 3.23698C10.8989 4.00068 10.8318 4.8161 10.7259 5.45358C10.6871 5.68731 10.5588 6.03605 10.3255 6.47866C10.1003 6.90585 9.81419 7.35205 9.52316 7.76639C9.23395 8.17814 8.95129 8.54231 8.74048 8.8039C8.70598 8.8467 8.67352 8.88662 8.64338 8.92342L6.7817 9.45549C6.34575 9.1346 5.80382 8.94444 5.21657 8.94444H2.60828C1.16777 8.94444 0 10.0886 0 11.5V20.4444C0 21.8558 1.16777 23 2.60828 23H5.21657C6.01276 23 6.72564 22.6505 7.20406 22.0995L7.20465 22.0997C8.44837 22.6922 9.81321 23 11.1961 23H21.1049C23.0468 23 24.6948 21.6045 24.9761 19.7219L25.958 13.1505C26.3036 10.837 24.4732 8.76191 22.0868 8.76191H19.1358V4.66587C19.1358 2.08898 17.0037 0 14.3736 0ZM7.82485 19.5536L8.34507 19.8014C9.23344 20.2246 10.2083 20.4444 11.1961 20.4444H21.1049C21.7522 20.4444 22.3016 19.9793 22.3953 19.3518L23.3772 12.7803C23.4924 12.0092 22.8823 11.3175 22.0868 11.3175H17.8316C17.1114 11.3175 16.5275 10.7454 16.5275 10.0397V4.66587C16.5275 3.50037 15.5632 2.55556 14.3736 2.55556C13.9605 2.55556 13.5703 2.89389 13.5446 3.37131C13.502 4.16372 13.4291 5.0884 13.3004 5.86388C13.1972 6.48558 12.9272 7.11218 12.6429 7.65139C12.3506 8.20603 11.9999 8.74813 11.6718 9.21518C11.3419 9.6848 11.0233 10.0951 10.7875 10.3876C10.6693 10.5344 10.5709 10.6527 10.5011 10.7355C10.4662 10.7769 10.4383 10.8095 10.4187 10.8323L10.3955 10.8592L10.3887 10.867L10.3866 10.8695L10.3858 10.8703L10.3855 10.8707C10.3854 10.8708 10.3853 10.8709 9.39484 10.0397L10.3853 10.8709C10.2205 11.0594 10.0032 11.1968 9.76003 11.2663L7.82485 11.8194V19.5536ZM5.21657 11.5H2.60828V14.0556V17.8889V20.4444H5.21657V20.3532V17.8889V14.0556V11.5Z" fill="#CDD3DB"/>
</svg>
