<svg width="15" height="14" viewBox="0 0 15 14" fill="none" xmlns="http://www.w3.org/2000/svg">
<path fill-rule="evenodd" clip-rule="evenodd" d="M0 3V5.38067C0 6.19927 0.334513 6.98232 0.925976 7.54825L6.43605 12.8205C7.59601 13.9304 9.42415 13.9304 10.5841 12.8205L13.2075 10.3103C14.4421 9.12899 14.4421 7.15651 13.2075 5.97516L7.83276 0.832414C7.27443 0.298183 6.53148 0 5.75873 0H3C1.34315 0 0 1.34315 0 3ZM4.64182 5.922C5.49637 5.922 6.18911 5.25916 6.18911 4.4415C6.18911 3.62384 5.49637 2.961 4.64182 2.961C3.78728 2.961 3.09454 3.62384 3.09454 4.4415C3.09454 5.25916 3.78728 5.922 4.64182 5.922Z" fill="#F9E5E5"/>
</svg>
