<svg width="13" height="8" viewBox="0 0 13 8" fill="none" xmlns="http://www.w3.org/2000/svg">
<path fill-rule="evenodd" clip-rule="evenodd" d="M8.57717 7.80047C8.82871 8.06316 9.24025 8.06696 9.49637 7.80897L12.8055 4.47563C12.9299 4.35028 13 4.1789 13 4C13 3.82111 12.9299 3.64972 12.8055 3.52437L9.49637 0.191036C9.24025 -0.0669568 8.82871 -0.0631546 8.57717 0.19953C8.32562 0.462214 8.32933 0.884307 8.58545 1.1423L10.7605 3.33334L0.650001 3.33333C0.291016 3.33333 7.63759e-07 3.63181 6.99382e-07 4C6.35006e-07 4.36819 0.291015 4.66667 0.65 4.66667L10.7605 4.66667L8.58545 6.8577C8.32933 7.1157 8.32562 7.53779 8.57717 7.80047Z" fill="#8693A4"/>
</svg>
