<svg width="38" height="37" viewBox="0 0 38 37" fill="none" xmlns="http://www.w3.org/2000/svg">
<path fill-rule="evenodd" clip-rule="evenodd" d="M18.625 0C19.9591 0 21.1899 0.718186 21.8462 1.87965L26.3516 9.85222L34.1353 11.375C35.4913 11.6403 36.5865 12.6391 36.9754 13.9649C37.3642 15.2908 36.9819 16.7229 35.9839 17.6785L30.0638 23.3478L31.4333 32.7676C31.632 34.1341 31.0532 35.4975 29.9322 36.3038C28.8112 37.11 27.3346 37.225 26.1023 36.6019L18.625 32.8211L11.1477 36.6019C9.91544 37.225 8.43876 37.11 7.31776 36.3038C6.19676 35.4975 5.618 34.1341 5.81667 32.7676L7.18621 23.3478L1.26605 17.6785C0.268116 16.7229 -0.1142 15.2908 0.274643 13.9649C0.663485 12.6391 1.75869 11.6403 3.11469 11.375L10.8984 9.85222L15.4038 1.87965C16.0601 0.718186 17.2909 0 18.625 0Z" fill="#212833"/>
</svg>
