<svg width="30" height="27" viewBox="0 0 30 27" fill="none" xmlns="http://www.w3.org/2000/svg">
<path class="basket-svg"  fill-rule="evenodd" clip-rule="evenodd" d="M1.5 0C0.671573 0 0 0.671573 0 1.5C0 2.32843 0.671573 3 1.5 3H1.50098H1.50285H1.50506H1.50639H1.50788H1.5113H1.51533H1.51643H1.51757H1.51996H1.57764H1.79297H2.53125H3.30266L6.7873 18.3324C6.96697 19.123 7.74048 19.6245 8.53056 19.4735C8.62188 19.4909 8.71613 19.5 8.8125 19.5H24C24.6253 19.5 25.1849 19.1121 25.4045 18.5267L29.9045 6.52669C30.0772 6.06604 30.0131 5.54997 29.7329 5.14561C29.4527 4.74125 28.992 4.5 28.5 4.5H6.72007L5.9627 1.16757C5.80749 0.484636 5.20035 0 4.5 0H2.53125H1.79297H1.57764H1.56848H1.55986H1.55779H1.55576H1.5518H1.54429H1.53097H1.52947H1.528H1.52657H1.52517H1.52381H1.52249H1.51996H1.5113H1.50788H1.50639H1.50506H1.50127H1.5ZM7.40189 7.5L9.44734 16.5H22.9605L26.3355 7.5H7.40189ZM12 21C10.3431 21 9 22.3431 9 24C9 25.6569 10.3431 27 12 27C13.6568 27 15 25.6569 15 24C15 22.3431 13.6568 21 12 21ZM18 24C18 22.3431 19.3431 21 21 21C22.6568 21 24 22.3431 24 24C24 25.6569 22.6568 27 21 27C19.3431 27 18 25.6569 18 24Z" fill="#B6C2CC"/>
</svg>
