<svg width="31" height="26" viewBox="0 0 31 26" fill="none" xmlns="http://www.w3.org/2000/svg">
<path fill-rule="evenodd" clip-rule="evenodd" d="M13.908 25.5651L15.5015 22.9412L17.1348 25.5411C16.1485 26.1442 14.9034 26.1535 13.908 25.5651ZM13.164 4.59962C11.9656 3.79666 10.4 3.05882 8.69293 3.05882C4.77803 3.05882 2.48015 5.89915 3.24611 9.79779C4.55751 16.4726 15.5015 22.9412 15.5015 22.9412C13.908 25.5651 13.908 25.5651 13.908 25.5651L13.9018 25.5615L13.8916 25.5554L13.8595 25.5362C13.8329 25.5202 13.7961 25.498 13.7497 25.4698C13.657 25.4133 13.5258 25.3326 13.3614 25.2291C13.0327 25.0223 12.5695 24.7237 12.0129 24.3457C10.9039 23.5925 9.40287 22.5096 7.84815 21.1953C6.30218 19.8884 4.64397 18.3032 3.26106 16.5379C1.89756 14.7974 0.658363 12.7013 0.202279 10.3798C-0.318115 7.7311 0.149704 5.08821 1.79032 3.05896C3.44149 1.01665 5.95528 0 8.69293 0C11.52 0 13.8701 1.31373 15.328 2.36236C15.3867 2.40459 15.4445 2.44679 15.5015 2.48891C15.5584 2.44679 15.6162 2.40459 15.6749 2.36236C17.1328 1.31373 19.4829 0 22.31 0C28.4259 0 31.9541 5.5896 30.7737 10.5032C30.2325 12.7561 28.9787 14.8078 27.6126 16.5303C26.2274 18.2766 24.5904 19.8541 23.0671 21.161C21.5362 22.4745 20.0669 23.56 18.9827 24.3163C18.4387 24.6958 17.9869 24.9958 17.6666 25.2036C17.5063 25.3076 17.3787 25.3888 17.2885 25.4455C17.2656 25.4599 17.2452 25.4727 17.2272 25.4839C17.2097 25.4948 17.1946 25.5042 17.1818 25.5121L17.1506 25.5314L17.1408 25.5375L17.1348 25.5411C17.1348 25.5411 17.1348 25.5411 15.5015 22.9412C15.5015 22.9412 26.1659 16.4202 27.7568 9.79779C28.5228 6.60924 26.2249 3.05882 22.31 3.05882C20.6029 3.05882 19.0373 3.79666 17.8389 4.59962C16.4086 5.55804 15.5015 6.60924 15.5015 6.60924C15.5015 6.60924 14.5943 5.55804 13.164 4.59962Z" fill="#B6C2CC"/>
</svg>
