<svg width="122" height="36" viewBox="0 0 122 36" fill="none" xmlns="http://www.w3.org/2000/svg">
<path d="M17.2491 0H0.579022C0.26056 0 0 0.262263 0 0.582807V25.7135C0 26.0398 0.26056 26.2963 0.579022 26.2963H4.61481C4.93327 26.2963 5.19383 26.0398 5.19383 25.7135V15.7475H15.6915C16.01 15.7475 16.2705 15.4852 16.2705 15.1646V11.9592C16.2705 11.6387 16.01 11.3764 15.6915 11.3764H5.19383V4.42351H17.2491C17.5675 4.42351 17.8281 4.16124 17.8281 3.8407V0.582807C17.8281 0.262263 17.5675 0 17.2491 0Z" fill="#28689E"/>
<path d="M36.8257 25.5094C36.5768 25.3754 36.3857 25.2122 36.2525 25.0199C36.0904 24.7926 35.9977 24.3555 35.963 23.7202C35.9398 22.881 35.9282 22.1641 35.9282 21.5697V13.0315C35.9282 10.7877 35.1408 9.2666 33.56 8.4565C31.9793 7.6464 30.1786 7.24426 28.1462 7.24426C25.0195 7.24426 22.8134 8.06602 21.5338 9.70371C20.8389 10.6012 20.4105 11.7144 20.2367 13.0432C20.1904 13.3987 20.451 13.7134 20.81 13.7134H24.3652C24.6199 13.7134 24.8573 13.5502 24.921 13.2938C25.0484 12.7751 25.2511 12.3438 25.5232 12.0058C26.0038 11.4405 26.826 11.1549 27.9841 11.1549C29.0147 11.1549 29.7964 11.3006 30.3291 11.592C30.8618 11.8776 31.1282 12.4079 31.1282 13.1714C31.1282 13.795 30.7807 14.2554 30.0859 14.5527C29.698 14.7217 29.0553 14.8674 28.1578 14.9781L26.496 15.1821C24.6199 15.421 23.1955 15.8232 22.2228 16.3769C20.4568 17.4026 19.5767 19.0578 19.5767 21.3482C19.5767 23.1141 20.1267 24.4779 21.2211 25.4395C22.3212 26.4011 23.7109 26.879 25.3958 26.879C26.716 26.879 27.8972 26.576 28.9452 25.9757C29.8196 25.4628 30.5955 24.8392 31.2613 24.1107C31.2961 24.5362 31.3424 24.9091 31.4003 25.2413C31.435 25.4453 31.4871 25.6551 31.5566 25.8766C31.6319 26.1272 31.8577 26.2962 32.1125 26.2962H36.7099C36.8547 26.2962 36.9647 26.1797 36.9647 26.034V25.7367C36.9647 25.6435 36.9068 25.5502 36.8257 25.5094ZM31.1108 19.0578C31.076 20.6896 30.6128 21.8086 29.7269 22.4206C28.8352 23.0383 27.8625 23.3472 26.8029 23.3472C26.137 23.3472 25.5753 23.1607 25.1063 22.7877C24.6431 22.4206 24.4115 21.8203 24.4115 20.9869C24.4115 20.0544 24.7937 19.3667 25.5522 18.9237C26.0038 18.6615 26.745 18.44 27.7756 18.2593L28.8758 18.0495C29.4258 17.9504 29.8601 17.8397 30.1728 17.7173C30.4912 17.6007 30.8039 17.4434 31.1108 17.2511V19.0578Z" fill="#28689E"/>
<path d="M50.3343 7.25009C50.3228 7.24426 50.3112 7.24426 50.2996 7.24426C50.2938 7.24426 50.2938 7.24426 50.288 7.24426H50.2649C50.2591 7.24426 50.2591 7.24426 50.2533 7.24426H50.1954C48.7478 7.24426 47.5724 7.62309 46.6691 8.38656C46.1133 8.84115 45.4648 9.69205 44.7178 10.9334V8.27C44.7178 7.94946 44.4573 7.6872 44.1388 7.6872H40.682C40.3636 7.6872 40.103 7.94946 40.103 8.27V25.7134C40.103 26.0398 40.3636 26.2962 40.682 26.2962H44.3936C44.712 26.2962 44.9726 26.0398 44.9726 25.7134V17.4026C44.9726 15.9106 45.1579 14.8091 45.5285 14.0922C46.2001 12.8159 47.5029 12.1806 49.4484 12.1806C49.5932 12.1806 49.7901 12.1865 50.0275 12.1981C50.0854 12.204 50.1491 12.204 50.2127 12.2098C50.2359 12.2156 50.2591 12.2156 50.288 12.2156H50.2938C50.6007 12.2098 50.8381 11.965 50.8381 11.6561V7.79793C50.8381 7.51235 50.6181 7.26757 50.3343 7.25009Z" fill="#28689E"/>
<path d="M79.9513 11.8194C79.766 10.8752 79.4186 10.0768 78.8974 9.42986C78.2547 8.63141 77.5367 8.07774 76.7435 7.7572C75.9502 7.43666 75.1512 7.2793 74.3348 7.2793C73.113 7.2793 72.0071 7.53573 71.0112 8.0486C70.0731 8.56147 69.2857 9.35992 68.6545 10.4556C68.2898 9.54059 67.7571 8.80042 67.0564 8.21762C66.1879 7.59401 65.0414 7.2793 63.6286 7.2793C62.1405 7.2793 60.9246 7.64064 59.9808 8.36915C59.4539 8.78294 58.8864 9.47065 58.2843 10.4381V8.30504C58.2843 7.98449 58.0295 7.72223 57.7052 7.72223H54.1674C53.8489 7.72223 53.5884 7.98449 53.5884 8.30504V25.7135C53.5884 26.0399 53.8489 26.2963 54.1674 26.2963H57.9137C58.2321 26.2963 58.4927 26.0399 58.4927 25.7135V15.1006C58.4927 14.0865 58.6201 13.323 58.8806 12.8101C59.3554 11.9126 60.2819 11.4639 61.6599 11.4639C62.8527 11.4639 63.646 11.9126 64.0571 12.8101C64.2829 13.3114 64.3929 14.1156 64.3929 15.2171V25.7135C64.3929 26.0399 64.6535 26.2963 64.972 26.2963H68.6835C69.002 26.2963 69.2625 26.0399 69.2625 25.7135V15.2171C69.2625 14.3895 69.3899 13.6727 69.6505 13.0841C70.16 11.9709 71.0806 11.4114 72.4182 11.4114C73.5704 11.4114 74.3637 11.8427 74.7922 12.7052C75.018 13.1656 75.1338 13.7426 75.1338 14.4478V25.7135C75.1338 26.0399 75.3886 26.2963 75.7128 26.2963H79.5054C79.8297 26.2963 80.0844 26.0399 80.0844 25.7193L80.1192 14.5702C80.1192 13.3638 80.0613 12.4488 79.9513 11.8194Z" fill="#28689E"/>
<path d="M100.321 7.68726H96.3898C96.135 7.68726 95.9034 7.8621 95.8339 8.10688L92.0181 21.4182L88.2892 8.11271C88.2198 7.8621 87.9881 7.68726 87.7276 7.68726H83.5644C83.1649 7.68726 82.8812 8.08939 83.0201 8.46822L89.2331 25.9116C89.3141 26.1448 89.5341 26.2963 89.7773 26.2963H94.0621C94.3053 26.2963 94.5253 26.1448 94.6064 25.9116L100.866 8.46822C100.999 8.08939 100.721 7.68726 100.321 7.68726Z" fill="#B07A9E"/>
<path d="M108.277 7.68726H104.531C104.212 7.68726 103.952 7.94952 103.952 8.27006V25.7135C103.952 26.0399 104.212 26.2963 104.531 26.2963H108.277C108.596 26.2963 108.856 26.0399 108.856 25.7135V8.27006C108.856 7.94952 108.596 7.68726 108.277 7.68726Z" fill="#B07A9E"/>
<path d="M121.421 11.324C121.745 11.324 122 11.0617 122 10.7412V8.43907C122 8.11852 121.745 7.85626 121.421 7.85626H119.001V2.08647C119.001 1.76593 118.74 1.50366 118.422 1.50366H114.797C114.473 1.50366 114.218 1.76593 114.218 2.08647V7.85626H112.215C111.896 7.85626 111.635 8.11852 111.635 8.43907V10.7412C111.635 11.0617 111.896 11.324 112.215 11.324H114.218V22.782C114.218 23.9417 114.49 24.8043 115.029 25.358C115.868 26.238 117.426 26.6343 119.713 26.5527L121.444 26.4886C121.757 26.4769 122 26.2205 122 25.9058V23.4114C122 23.1141 121.763 22.8635 121.462 22.8577C121.456 22.8577 121.456 22.8577 121.45 22.8577H121.427C121.294 22.8635 121.172 22.8694 121.05 22.8694C120.066 22.8694 119.481 22.7761 119.29 22.5838C119.093 22.3973 119.001 21.9252 119.001 21.1617V11.324H121.421Z" fill="#B07A9E"/>
<path d="M66.8538 35.9999C62.6038 35.9999 59.1123 32.6896 58.788 28.4934C58.7591 28.1495 59.0254 27.8523 59.3671 27.8523H62.2795C62.5691 27.8523 62.8123 28.0679 62.847 28.3593C63.096 30.3642 64.7983 31.9203 66.8538 31.9203C68.9094 31.9203 70.6175 30.3642 70.8607 28.3593C70.8954 28.0679 71.1386 27.8523 71.4281 27.8523H74.3406C74.6822 27.8523 74.9486 28.1495 74.9196 28.4934C74.5954 32.6838 71.1039 35.9999 66.8538 35.9999Z" fill="#B07A9E"/>
<path d="M108.462 1.93497C108.196 1.64356 107.831 1.48621 107.432 1.48621C107.136 1.48621 106.864 1.57946 106.621 1.76595C106.5 1.8592 106.39 1.97576 106.297 2.10981C106.198 1.97576 106.088 1.8592 105.973 1.76595C105.735 1.57946 105.463 1.48621 105.162 1.48621C104.762 1.48621 104.398 1.64356 104.131 1.93497C103.871 2.22054 103.72 2.61685 103.72 3.0423C103.72 3.47941 103.882 3.88154 104.23 4.30699C104.542 4.68582 104.988 5.07047 105.509 5.5134C105.689 5.66493 105.886 5.83978 106.094 6.02045C106.152 6.06707 106.222 6.09621 106.291 6.09621C106.366 6.09621 106.436 6.06707 106.488 6.02045C106.696 5.83978 106.899 5.66493 107.073 5.5134C107.594 5.07047 108.04 4.68582 108.352 4.30699C108.7 3.88154 108.862 3.48523 108.862 3.0423C108.874 2.61685 108.729 2.22637 108.462 1.93497Z" fill="#28689E"/>
</svg>
