<svg width="27" height="32" viewBox="0 0 27 32" fill="none" xmlns="http://www.w3.org/2000/svg">
<path d="M26.3629 4.54007C26.1776 3.59592 25.8302 2.79747 25.3091 2.15056C24.6664 1.35211 23.9484 0.798446 23.1551 0.477902C22.3618 0.157358 21.5628 0 20.7464 0C19.5246 0 18.4187 0.256436 17.4228 0.769306C16.4848 1.28218 15.6973 2.08062 15.0662 3.1763C14.7014 2.26129 14.1687 1.52113 13.4681 0.93832C12.5995 0.314716 11.4531 0 10.0402 0C8.55216 0 7.33621 0.36134 6.3924 1.08985C5.86549 1.50364 5.29806 2.19135 4.69587 3.15881V1.02574C4.69587 0.705197 4.4411 0.442934 4.11685 0.442934H0.579022C0.26056 0.442934 0 0.705197 0 1.02574V18.4342C0 18.7606 0.26056 19.017 0.579022 19.017H4.32529C4.64376 19.017 4.90432 18.7606 4.90432 18.4342V7.82127C4.90432 6.80719 5.0317 6.04371 5.29226 5.53084C5.76706 4.63332 6.6935 4.18456 8.07157 4.18456C9.26436 4.18456 10.0576 4.63332 10.4687 5.53084C10.6945 6.03205 10.8046 6.83633 10.8046 7.93783V18.4342C10.8046 18.7606 11.0651 19.017 11.3836 19.017H15.0951C15.4136 19.017 15.6741 18.7606 15.6741 18.4342V7.93783C15.6741 7.11025 15.8015 6.3934 16.0621 5.80476C16.5716 4.6916 17.4923 4.1321 18.8298 4.1321C19.9821 4.1321 20.7753 4.56338 21.2038 5.42593C21.4296 5.88635 21.5454 6.46333 21.5454 7.16853V18.4342C21.5454 18.7606 21.8002 19.017 22.1244 19.017H25.917C26.2413 19.017 26.4961 18.7606 26.4961 18.44L26.5308 7.29092C26.5308 6.08451 26.4729 5.1695 26.3629 4.54007Z" fill="#28689E"/>
<path d="M13.2654 31.1647C9.01538 31.1647 5.52387 27.8544 5.19962 23.6582C5.17067 23.3143 5.43702 23.0171 5.77864 23.0171H8.69112C8.98064 23.0171 9.22383 23.2327 9.25857 23.5241C9.50755 25.529 11.2099 27.0851 13.2654 27.0851C15.3209 27.0851 17.029 25.529 17.2722 23.5241C17.307 23.2327 17.5502 23.0171 17.8397 23.0171H20.7522C21.0938 23.0171 21.3601 23.3143 21.3312 23.6582C21.0069 27.8486 17.5154 31.1647 13.2654 31.1647Z" fill="#B07A9E"/>
</svg>
