<svg  width="27" height="27" viewBox="0 0 27 27" fill="none" xmlns="http://www.w3.org/2000/svg">
<path  fill-rule="evenodd" clip-rule="evenodd" d="M13.5 27C6.04416 27 0 20.9558 0 13.5C0 6.04416 6.04416 0 13.5 0C20.9558 0 27 6.04416 27 13.5C27 20.9558 20.9558 27 13.5 27ZM13.5 2.7C7.53533 2.7 2.7 7.53533 2.7 13.5C2.7 16.3965 3.84021 19.0266 5.69627 20.9661C6.21056 19.2911 7.35903 17.8936 8.86154 17.0538C7.56123 15.8234 6.75 14.0815 6.75 12.15C6.75 8.42208 9.77208 5.4 13.5 5.4C17.2279 5.4 20.25 8.42208 20.25 12.15C20.25 14.0815 19.4388 15.8234 18.1385 17.0538C19.641 17.8936 20.7894 19.2911 21.3037 20.9661C23.1598 19.0266 24.3 16.3965 24.3 13.5C24.3 7.53533 19.4647 2.7 13.5 2.7ZM18.8989 22.8558C18.8489 20.6625 17.0553 18.9 14.85 18.9H13.5H12.15C9.94474 18.9 8.15115 20.6625 8.10108 22.8558C9.68937 23.7743 11.5333 24.3 13.5 24.3C15.4667 24.3 17.3106 23.7743 18.8989 22.8558ZM13.5 16.2C15.7368 16.2 17.55 14.3868 17.55 12.15C17.55 9.91325 15.7368 8.1 13.5 8.1C11.2632 8.1 9.45 9.91325 9.45 12.15C9.45 14.3868 11.2632 16.2 13.5 16.2Z" fill="#B6C2CC"/>
</svg>
