<svg width="11" height="12" viewBox="0 0 11 12" fill="none" xmlns="http://www.w3.org/2000/svg">
<path fill-rule="evenodd" clip-rule="evenodd" d="M1.83333 0C0.820811 0 0 0.815513 0 1.8215V8.357C0 9.04693 0.392337 9.67765 1.01344 9.9862L4.68011 11.8077C5.19624 12.0641 5.80376 12.0641 6.31989 11.8077L9.98656 9.9862C10.6077 9.67765 11 9.04693 11 8.357V1.8215C11 0.815513 10.1792 0 9.16667 0H1.83333ZM1.22222 1.8215C1.22222 1.48617 1.49583 1.21433 1.83333 1.21433H9.16667C9.50417 1.21433 9.77778 1.48617 9.77778 1.8215V8.357C9.77778 8.58698 9.647 8.79722 9.43996 8.90007L5.7733 10.7216C5.60125 10.807 5.39875 10.807 5.2267 10.7216L1.56004 8.90007C1.353 8.79722 1.22222 8.58698 1.22222 8.357V1.8215ZM7.52158 4.60789C7.72043 4.33694 7.66056 3.95714 7.38785 3.75957C7.11514 3.56201 6.73287 3.62149 6.53402 3.89244L5.2254 5.67554L4.75694 5.08763C4.54745 4.82472 4.16311 4.78031 3.89848 4.98845C3.63386 5.19659 3.58917 5.57846 3.79866 5.84137L4.76626 7.0557C4.8848 7.20448 5.06654 7.28964 5.2575 7.28588C5.44845 7.28212 5.62665 7.18988 5.73918 7.03656L7.52158 4.60789Z" fill="#41ACA1"/>
</svg>
