<svg width="11" height="12" viewBox="0 0 11 12" fill="none" xmlns="http://www.w3.org/2000/svg">
<path fill-rule="evenodd" clip-rule="evenodd" d="M3.05556 0C2.71805 0 2.44444 0.268629 2.44444 0.6V1.2H1.83333C0.820811 1.2 0 2.00589 0 3V4.2V10.2C0 11.1941 0.820812 12 1.83333 12H9.16667C10.1792 12 11 11.1941 11 10.2V4.2V3C11 2.00589 10.1792 1.2 9.16667 1.2H8.55556V0.6C8.55556 0.268629 8.28195 0 7.94444 0C7.60694 0 7.33333 0.268629 7.33333 0.6V1.2H3.66667V0.6C3.66667 0.268629 3.39306 0 3.05556 0ZM7.94444 2.4H3.05556H1.83333C1.49583 2.4 1.22222 2.66863 1.22222 3V3.6H9.77778V3C9.77778 2.66863 9.50417 2.4 9.16667 2.4H7.94444ZM1.22222 10.2V4.8H9.77778V10.2C9.77778 10.5314 9.50417 10.8 9.16667 10.8H1.83333C1.49583 10.8 1.22222 10.5314 1.22222 10.2Z" fill="#B6C2CC"/>
</svg>
