<svg width="11" height="12" viewBox="0 0 11 12" fill="none" xmlns="http://www.w3.org/2000/svg">
<path fill-rule="evenodd" clip-rule="evenodd" d="M0 1.8215C0 0.815513 0.820811 0 1.83333 0H9.16667C10.1792 0 11 0.815513 11 1.8215V8.357C11 9.04693 10.6077 9.67765 9.98656 9.9862L6.31989 11.8077C5.80376 12.0641 5.19624 12.0641 4.68011 11.8077L1.01344 9.9862C0.392337 9.67765 0 9.04693 0 8.357V1.8215ZM1.83333 1.21433C1.49583 1.21433 1.22222 1.48617 1.22222 1.8215V8.357C1.22222 8.58698 1.353 8.79722 1.56004 8.90007L5.2267 10.7216C5.39875 10.807 5.60125 10.807 5.7733 10.7216L9.43996 8.90007C9.647 8.79722 9.77778 8.58698 9.77778 8.357V1.8215C9.77778 1.48617 9.50417 1.21433 9.16667 1.21433H1.83333Z" fill="#DF6466"/>
<path d="M5.49993 2.27836C5.08307 2.27836 4.74991 2.62311 4.76657 3.03721L4.90411 6.45582C4.9169 6.77376 5.17987 7.02496 5.49993 7.02496C5.81998 7.02496 6.08295 6.77376 6.09574 6.45582L6.23328 3.03721C6.24994 2.62311 5.91678 2.27836 5.49993 2.27836Z" fill="#DF6466"/>
<path d="M4.62153 8.82866C4.62153 8.3568 5.00628 7.97428 5.4809 7.97428C5.95552 7.97428 6.34028 8.3568 6.34028 8.82866C6.34028 9.30053 5.95552 9.68305 5.4809 9.68305C5.00628 9.68305 4.62153 9.30053 4.62153 8.82866Z" fill="#DF6466"/>
</svg>
