<svg width="29" height="18" viewBox="0 0 29 18" fill="none" xmlns="http://www.w3.org/2000/svg">
<g clip-path="url(#clip0)">
<path d="M28.5 0.0146484H0.500023C0.2239 0.0146484 0 0.226994 0 0.488934V17.5644C0 17.8263 0.2239 18.0387 0.500023 18.0387H28.5C28.7762 18.0387 29.0001 17.8263 29.0001 17.5644V0.488934C29 0.226994 28.7761 0.0146484 28.5 0.0146484Z" fill="#4ED4F3"/>
<path d="M3.37112 2.17298C3.32587 1.9912 3.3146 1.9242 3.40058 1.84269C3.44249 1.80293 3.44249 1.73851 3.40058 1.69874C3.35866 1.65898 3.29075 1.65898 3.24884 1.69874C3.07484 1.86386 3.11635 2.03521 3.16138 2.21666C3.0242 2.17416 2.88192 2.2057 2.80568 2.29693C2.76784 2.34245 2.69466 2.47011 2.83179 2.67397C2.86368 2.72131 2.92961 2.73522 2.97996 2.70524C3.02998 2.67499 3.04453 2.61196 3.01264 2.56468C2.96121 2.4879 2.95969 2.44056 2.97407 2.42326C2.99106 2.40279 3.04374 2.39199 3.09891 2.41052C3.13454 2.42224 3.21734 2.4628 3.21734 2.58531C3.21734 2.68316 3.16965 2.77283 3.0865 2.83108C3.00319 2.88954 2.89534 2.90603 2.79141 2.87541C2.66306 2.83822 2.5734 2.70997 2.5734 2.56344C2.5734 2.45861 2.59707 2.35265 2.64057 2.25981C2.64748 2.24611 2.81151 1.92377 2.85377 1.80363C2.93731 1.56597 2.85241 1.44648 2.79446 1.39656C2.71692 1.32956 2.60359 1.31285 2.50605 1.35341C2.49121 1.35965 2.47898 1.36867 2.46612 1.37705C2.45326 1.36862 2.44097 1.35965 2.42619 1.35341C2.32871 1.31285 2.21543 1.32956 2.13777 1.39656C2.07983 1.44648 1.99493 1.56603 2.07847 1.80363C2.12072 1.92377 2.2847 2.24611 2.29014 2.25685C2.33505 2.35271 2.35879 2.45867 2.35879 2.5635C2.35879 2.71008 2.26918 2.83828 2.14078 2.87546C2.03644 2.90603 1.92894 2.88975 1.84568 2.83113C1.76253 2.77283 1.71484 2.68321 1.71484 2.58536C1.71484 2.46286 1.79765 2.42234 1.83327 2.41058C1.88861 2.39209 1.941 2.40279 1.95811 2.42331C1.9725 2.44061 1.97097 2.48795 1.91954 2.56473C1.88765 2.61207 1.90221 2.6751 1.95222 2.70529C2.00263 2.73554 2.06879 2.72141 2.10039 2.67402C2.23746 2.47017 2.16434 2.34255 2.1265 2.29699C2.05021 2.20575 1.90798 2.17421 1.7708 2.21671C1.81588 2.03537 1.85735 1.86391 1.68335 1.6988C1.64143 1.65904 1.57352 1.65904 1.53161 1.6988C1.48969 1.73856 1.48969 1.80298 1.53161 1.84274C1.61753 1.92425 1.60637 1.99126 1.56106 2.17303C1.53387 2.28194 1.50011 2.41778 1.50011 2.5852C1.50011 2.69659 1.5414 2.80314 1.61085 2.89067H1.60739C1.54809 2.89067 1.50006 2.93618 1.50006 2.99249C1.50006 3.04874 1.54803 3.09431 1.60739 3.09431H1.61085C1.5414 3.18184 1.50011 3.28833 1.50011 3.39972C1.50011 3.56714 1.53387 3.70298 1.561 3.81194C1.60626 3.99372 1.61753 4.06072 1.53155 4.14223C1.48963 4.18199 1.48963 4.24642 1.53155 4.28618C1.55251 4.30606 1.57998 4.316 1.60745 4.316C1.63486 4.316 1.66239 4.30606 1.68335 4.28618C1.85735 4.12106 1.81583 3.94966 1.7708 3.76826C1.90798 3.8106 2.05026 3.77922 2.1265 3.68799C2.16434 3.64248 2.23752 3.51481 2.10039 3.31095C2.06862 3.26362 2.00229 3.24954 1.95222 3.27968C1.90221 3.30993 1.88765 3.37296 1.91954 3.42024C1.97097 3.49702 1.9725 3.54436 1.95811 3.56166C1.94106 3.58192 1.88861 3.59267 1.83327 3.5744C1.79765 3.56268 1.71484 3.52212 1.71484 3.39961C1.71484 3.30176 1.76253 3.21209 1.84568 3.15384C1.929 3.09538 2.03673 3.07867 2.14078 3.10951C2.26912 3.1467 2.35879 3.27495 2.35879 3.42148C2.35879 3.52631 2.33511 3.63227 2.29014 3.72812L1.58717 5.22836C1.5294 5.35162 1.50006 5.48272 1.50006 5.61769C1.50006 5.79141 1.58332 5.95002 1.71438 6.04685C1.58337 6.14367 1.50006 6.30229 1.50006 6.476C1.50006 6.61103 1.52945 6.74208 1.58717 6.86534L2.29002 8.36546C2.33494 8.46132 2.35867 8.56728 2.35867 8.67211C2.35867 8.81868 2.26907 8.94689 2.14066 8.98407C2.03633 9.01491 1.92883 8.99836 1.84556 8.93974C1.76242 8.88144 1.71472 8.79182 1.71472 8.69397C1.71472 8.57147 1.79753 8.53095 1.83316 8.51919C1.8885 8.50086 1.94089 8.5114 1.958 8.53192C1.97238 8.54922 1.97085 8.59656 1.91942 8.67334C1.88754 8.72068 1.90209 8.78371 1.95211 8.8139C2.00252 8.84415 2.06867 8.83018 2.10028 8.78263C2.23735 8.57877 2.16422 8.45116 2.12639 8.4056C2.05009 8.31436 1.90787 8.28293 1.77069 8.32532C1.81577 8.14398 1.85723 7.97252 1.68323 7.80741C1.64132 7.76765 1.57341 7.76765 1.53149 7.80741C1.48958 7.84717 1.48958 7.91159 1.53149 7.95135C1.61742 8.03286 1.60626 8.09987 1.56095 8.28164C1.53381 8.39061 1.50006 8.52644 1.50006 8.69387C1.50006 8.80525 1.54135 8.9118 1.61079 8.99933H1.60733C1.54803 8.99933 1.5 9.04484 1.5 9.10115C1.5 9.15746 1.54797 9.20297 1.60733 9.20297H1.61079C1.54129 9.2905 1.50006 9.39699 1.50006 9.50843C1.50006 9.67586 1.53381 9.81169 1.56095 9.92066C1.6062 10.1024 1.61747 10.1694 1.53149 10.2509C1.48958 10.2907 1.48958 10.3551 1.53149 10.3949C1.55245 10.4148 1.57992 10.4247 1.60739 10.4247C1.6348 10.4247 1.66233 10.4148 1.68329 10.3949C1.85729 10.2298 1.81577 10.0584 1.77074 9.87698C1.90793 9.91932 2.05021 9.88794 2.12645 9.7967C2.16428 9.75119 2.23746 9.62353 2.10033 9.41967C2.06856 9.37233 2.00223 9.35826 1.95216 9.3884C1.90215 9.41865 1.88759 9.48168 1.91948 9.52896C1.97091 9.60574 1.97244 9.65308 1.95805 9.67038C1.941 9.69085 1.88855 9.70165 1.83322 9.68311C1.79759 9.6714 1.71478 9.63083 1.71478 9.50833C1.71478 9.41048 1.76247 9.3208 1.84562 9.26256C1.92894 9.2041 2.03667 9.18739 2.14072 9.21823C2.26907 9.25541 2.35873 9.38367 2.35873 9.53019C2.35873 9.63502 2.33505 9.74098 2.29008 9.83684L1.58717 11.3372C1.5294 11.4605 1.50006 11.5916 1.50006 11.7266C1.50006 11.9003 1.58332 12.0589 1.71438 12.1557C1.58337 12.2525 1.50006 12.4112 1.50006 12.5849C1.50006 12.7199 1.52945 12.851 1.58717 12.9742L2.29002 14.4743C2.33494 14.5702 2.35867 14.6762 2.35867 14.781C2.35867 14.9276 2.26907 15.0558 2.14066 15.0929C2.03633 15.1238 1.92883 15.1071 1.84556 15.0486C1.76242 14.9903 1.71472 14.9007 1.71472 14.8029C1.71472 14.6803 1.79753 14.6398 1.83316 14.6281C1.8885 14.6097 1.94089 14.6203 1.958 14.6408C1.97238 14.6581 1.97085 14.7054 1.91942 14.7822C1.88754 14.8296 1.90209 14.8925 1.95211 14.9228C2.00252 14.953 2.06867 14.9391 2.10028 14.8915C2.23735 14.6877 2.16422 14.56 2.12639 14.5145C2.05009 14.423 1.90787 14.3917 1.77069 14.4342C1.81577 14.2529 1.85723 14.0814 1.68323 13.9163C1.64132 13.8765 1.57341 13.8765 1.53149 13.9163C1.48958 13.956 1.48958 14.0205 1.53149 14.0602C1.61742 14.1417 1.60626 14.2087 1.56095 14.3905C1.53381 14.4995 1.50006 14.6353 1.50006 14.8027C1.50006 14.9623 1.58066 15.1142 1.7154 15.21C1.58066 15.3057 1.50006 15.4577 1.50006 15.6173C1.50006 15.7847 1.53381 15.9205 1.56095 16.0295C1.6062 16.2112 1.61747 16.2783 1.53149 16.3598C1.48958 16.3995 1.48958 16.464 1.53149 16.5037C1.55245 16.5236 1.57992 16.5335 1.60739 16.5335C1.6348 16.5335 1.66233 16.5236 1.68329 16.5037C1.85729 16.3386 1.81577 16.1672 1.77074 15.9858C1.90793 16.0281 2.05021 15.9968 2.12645 15.9055C2.16428 15.86 2.23746 15.7324 2.10033 15.5285C2.06856 15.4812 2.00223 15.4672 1.95216 15.4972C1.90215 15.5275 1.88759 15.5905 1.91948 15.6378C1.97091 15.7146 1.97244 15.7619 1.95805 15.7792C1.941 15.7997 1.88855 15.8102 1.83322 15.7919C1.79759 15.7802 1.71478 15.7397 1.71478 15.6172C1.71478 15.5193 1.76247 15.4296 1.84562 15.3714C1.92894 15.3129 2.03667 15.2964 2.14072 15.3271C2.26907 15.3642 2.35873 15.4925 2.35873 15.639C2.35873 15.7438 2.33505 15.8498 2.29155 15.9427C2.28464 15.9564 2.12061 16.2787 2.07836 16.3988C1.99481 16.6365 2.07972 16.756 2.13766 16.8059C2.18722 16.8487 2.25105 16.8711 2.3163 16.8711C2.35329 16.8711 2.39079 16.8638 2.42613 16.8491C2.44097 16.8429 2.4532 16.8338 2.46606 16.8255C2.47892 16.8339 2.49121 16.8429 2.50599 16.8491C2.54128 16.8638 2.57883 16.8711 2.61582 16.8711C2.6809 16.8711 2.74485 16.8487 2.79446 16.8059C2.85241 16.756 2.93731 16.6364 2.85377 16.3988C2.81151 16.2787 2.64754 15.9564 2.6421 15.9456C2.59719 15.8498 2.57345 15.7438 2.57345 15.639C2.57345 15.4924 2.66306 15.3641 2.79146 15.327C2.89585 15.2964 3.0033 15.3129 3.08656 15.3713C3.16971 15.4296 3.2174 15.5193 3.2174 15.6171C3.2174 15.7396 3.13459 15.7801 3.09896 15.7919C3.04385 15.8102 2.99106 15.7997 2.97413 15.7792C2.95974 15.7618 2.96127 15.7145 3.0127 15.6377C3.04459 15.5904 3.03003 15.5274 2.98002 15.4972C2.92989 15.4673 2.86379 15.4813 2.83185 15.5284C2.69478 15.7323 2.7679 15.8599 2.80574 15.9055C2.88203 15.9967 3.02426 16.0281 3.16144 15.9857C3.11635 16.1671 3.07489 16.3385 3.24889 16.5037C3.26985 16.5235 3.29732 16.5335 3.32479 16.5335C3.35226 16.5335 3.37973 16.5235 3.40069 16.5037C3.4426 16.4639 3.4426 16.3995 3.40069 16.3597C3.31477 16.2782 3.32592 16.2112 3.37124 16.0294C3.39837 15.9205 3.43212 15.7846 3.43212 15.6172C3.43212 15.4576 3.35153 15.3057 3.21678 15.2099C3.35153 15.1142 3.43212 14.9623 3.43212 14.8026C3.43212 14.6352 3.39837 14.4994 3.37124 14.3904C3.32598 14.2087 3.31471 14.1416 3.40069 14.0601C3.4426 14.0204 3.4426 13.9559 3.40069 13.9162C3.35878 13.8764 3.29086 13.8764 3.24895 13.9162C3.07495 14.0813 3.11647 14.2526 3.1615 14.4341C3.02431 14.3916 2.88203 14.4229 2.80579 14.5144C2.76796 14.5599 2.69478 14.6875 2.8319 14.8914C2.86379 14.9387 2.92972 14.9527 2.98008 14.9227C3.03009 14.8924 3.04465 14.8294 3.01276 14.7821C2.96133 14.7053 2.9598 14.658 2.97419 14.6407C2.99118 14.6202 3.04385 14.6097 3.09902 14.628C3.13465 14.6397 3.21746 14.6802 3.21746 14.8027C3.21746 14.9006 3.16977 14.9903 3.08662 15.0485C3.0033 15.107 2.89546 15.1237 2.79152 15.0928C2.66317 15.0557 2.57351 14.9274 2.57351 14.7809C2.57351 14.676 2.59719 14.5701 2.64216 14.4742L3.34501 12.9741C3.40279 12.8508 3.43212 12.7197 3.43212 12.5848C3.43212 12.4111 3.34886 12.2524 3.2178 12.1556C3.34881 12.0588 3.43212 11.9002 3.43212 11.7265C3.43212 11.5914 3.40273 11.4604 3.34501 11.3371L2.64221 9.83711C2.5973 9.74125 2.57357 9.63529 2.57357 9.53046C2.57357 9.38388 2.66317 9.25568 2.79158 9.2185C2.89596 9.18787 3.00341 9.20437 3.08667 9.26283C3.16982 9.32113 3.21751 9.41075 3.21751 9.5086C3.21751 9.6311 3.13471 9.67162 3.09908 9.68338C3.04397 9.70187 2.99118 9.69117 2.97424 9.67065C2.95986 9.65335 2.96138 9.60601 3.01281 9.52923C3.0447 9.48189 3.03015 9.41892 2.98013 9.38867C2.93001 9.35885 2.86391 9.37276 2.83196 9.41994C2.69489 9.6238 2.76801 9.75141 2.80585 9.79697C2.88214 9.88821 3.02437 9.91964 3.16155 9.87725C3.11647 10.0586 3.07501 10.23 3.24901 10.3952C3.26996 10.415 3.29743 10.425 3.3249 10.425C3.35238 10.425 3.37985 10.415 3.4008 10.3952C3.44272 10.3554 3.44272 10.291 3.4008 10.2512C3.31488 10.1697 3.32604 10.1027 3.37135 9.92093C3.39848 9.81196 3.43224 9.67613 3.43224 9.5087C3.43224 9.39732 3.39095 9.29077 3.32151 9.20324H3.32496C3.38426 9.20324 3.43229 9.15773 3.43229 9.10142C3.43229 9.04516 3.38432 8.9996 3.32496 8.9996H3.32151C3.391 8.91207 3.43224 8.80563 3.43224 8.69414C3.43224 8.52671 3.39848 8.39088 3.37135 8.28191C3.32609 8.10014 3.31482 8.03313 3.4008 7.95162C3.44272 7.91186 3.44272 7.84744 3.4008 7.80768C3.35889 7.76791 3.29098 7.76791 3.24906 7.80768C3.07506 7.97279 3.11658 8.14419 3.16161 8.32559C3.02443 8.28325 2.88214 8.31463 2.80591 8.40587C2.76807 8.45138 2.69489 8.57904 2.83202 8.7829C2.86391 8.83024 2.92984 8.84399 2.98019 8.81417C3.0302 8.78392 3.04476 8.72089 3.01287 8.67361C2.96144 8.59683 2.95991 8.54949 2.9743 8.53219C2.99129 8.51172 3.04397 8.50119 3.09913 8.51945C3.13476 8.53117 3.21757 8.57174 3.21757 8.69424C3.21757 8.79209 3.16988 8.88177 3.08673 8.94001C3.00341 8.99847 2.89557 9.01497 2.79163 8.98434C2.66329 8.94716 2.57362 8.8189 2.57362 8.67237C2.57362 8.56754 2.5973 8.46159 2.64227 8.36573L3.34512 6.8656C3.4029 6.74234 3.43224 6.61124 3.43224 6.47627C3.43224 6.30255 3.34898 6.14394 3.21791 6.04711C3.34892 5.95029 3.43224 5.79168 3.43224 5.61796C3.43224 5.48294 3.40284 5.35188 3.34512 5.22862L2.64227 3.7285C2.59736 3.63264 2.57362 3.52668 2.57362 3.42185C2.57362 3.27528 2.66323 3.14707 2.79163 3.10989C2.89602 3.07926 3.00347 3.09576 3.08673 3.15422C3.16988 3.21252 3.21757 3.30214 3.21757 3.39999C3.21757 3.52249 3.13476 3.56301 3.09913 3.57477C3.04402 3.5931 2.99123 3.5823 2.9743 3.56204C2.95991 3.54474 2.96144 3.4974 3.01287 3.42062C3.04476 3.37328 3.0302 3.31025 2.98019 3.28006C2.93006 3.25024 2.86396 3.26394 2.83202 3.31128C2.69495 3.51513 2.76807 3.64274 2.80591 3.68831C2.8822 3.77954 3.02443 3.81098 3.16161 3.76858C3.11652 3.94993 3.07506 4.12138 3.24906 4.2865C3.27002 4.30638 3.29749 4.31632 3.32496 4.31632C3.35243 4.31632 3.3799 4.30638 3.40086 4.2865C3.44277 4.24674 3.44277 4.18231 3.40086 4.14255C3.31494 4.06104 3.32609 3.99404 3.37141 3.81227C3.39854 3.7033 3.43229 3.56747 3.43229 3.40004C3.43229 3.28865 3.391 3.18211 3.32156 3.09458H3.32502C3.38432 3.09458 3.43235 3.04907 3.43235 2.99276C3.43235 2.9365 3.38438 2.89094 3.32502 2.89094H3.32156C3.39106 2.80341 3.43229 2.69696 3.43229 2.58547C3.43195 2.41778 3.3982 2.28194 3.37112 2.17298ZM2.28192 1.7391C2.2438 1.63056 2.25712 1.56871 2.28226 1.54701C2.29869 1.53228 2.32361 1.53288 2.33941 1.53965C2.35879 1.54781 2.35879 1.56076 2.35879 1.5671C2.35879 1.62336 2.40676 1.66892 2.46612 1.66892C2.52542 1.66892 2.57345 1.62341 2.57345 1.5671C2.57345 1.56076 2.57345 1.54781 2.59282 1.53965C2.60834 1.53288 2.6331 1.53228 2.64997 1.54701C2.67512 1.56871 2.68843 1.63056 2.65031 1.7391C2.62256 1.81781 2.52214 2.02274 2.46618 2.13397C2.41135 2.02532 2.30985 1.81835 2.28192 1.7391ZM2.46606 5.94008C2.49687 5.97979 2.53171 6.01676 2.57408 6.04685C2.53171 6.07699 2.49687 6.1139 2.46606 6.15361C2.43525 6.1139 2.40042 6.07694 2.35805 6.04685C2.40042 6.0167 2.43525 5.97984 2.46606 5.94008ZM2.46606 12.0489C2.49687 12.0886 2.53171 12.1256 2.57408 12.1557C2.53171 12.1858 2.49687 12.2227 2.46606 12.2624C2.43525 12.2227 2.40042 12.1858 2.35805 12.1557C2.40042 12.1255 2.43525 12.0887 2.46606 12.0489ZM2.65014 16.4635C2.68826 16.572 2.67495 16.6339 2.6498 16.6556C2.63293 16.6701 2.60817 16.6695 2.59265 16.6629C2.57328 16.6548 2.57328 16.6419 2.57328 16.6355C2.57328 16.5792 2.52531 16.5336 2.46595 16.5336C2.40659 16.5336 2.35862 16.5792 2.35862 16.6355C2.35862 16.6418 2.35862 16.6548 2.33924 16.6629C2.3235 16.6695 2.29858 16.6701 2.28209 16.6556C2.25695 16.6339 2.24363 16.572 2.28175 16.4635C2.30951 16.3848 2.40993 16.1798 2.46589 16.0686C2.52072 16.1772 2.62222 16.3842 2.65014 16.4635ZM2.57306 15.2101C2.53245 15.2401 2.49642 15.276 2.46606 15.3165C2.43576 15.276 2.39968 15.2401 2.35907 15.2101C2.39968 15.1801 2.4357 15.1442 2.46606 15.1036C2.49637 15.1442 2.53239 15.1801 2.57306 15.2101ZM3.14864 12.8914L2.46601 14.3484L1.78337 12.8914C1.73846 12.7956 1.71472 12.6896 1.71472 12.5848C1.71472 12.4382 1.80433 12.3099 1.93273 12.2728C2.03707 12.2422 2.14468 12.2587 2.22783 12.3171C2.31098 12.3754 2.35867 12.4651 2.35867 12.5629C2.35867 12.6854 2.27586 12.7259 2.24024 12.7377C2.1849 12.756 2.13228 12.7455 2.1154 12.725C2.10101 12.7077 2.10254 12.6603 2.15397 12.5835C2.18586 12.5362 2.1713 12.4732 2.12129 12.443C2.07116 12.4132 2.00506 12.4271 1.97312 12.4742C1.83605 12.6781 1.90917 12.8057 1.94701 12.8513C2.02472 12.9443 2.17091 12.9764 2.3107 12.93C2.32661 12.9248 2.34276 12.9183 2.35867 12.9106V13.1681C2.35867 13.168 2.3585 13.1679 2.3585 13.1679C2.35527 13.1143 2.30849 13.072 2.25139 13.072C2.19209 13.072 2.14406 13.1175 2.14406 13.1738C2.14406 13.2402 2.193 13.3554 2.35867 13.3911V13.5811C2.35867 13.6373 2.40665 13.6829 2.46601 13.6829C2.52537 13.6829 2.57334 13.6374 2.57334 13.5811V13.3911C2.73901 13.3554 2.78795 13.2402 2.78795 13.1738C2.78795 13.1176 2.74009 13.0687 2.68084 13.0687C2.62154 13.0687 2.57374 13.1109 2.57374 13.1671C2.57368 13.1673 2.57334 13.1675 2.57328 13.1677V12.9107C2.5892 12.9184 2.60534 12.9249 2.62126 12.9301C2.76105 12.9764 2.90718 12.9444 2.98495 12.8514C3.02278 12.8059 3.09596 12.6782 2.95884 12.4743C2.92695 12.427 2.86073 12.4131 2.81066 12.4431C2.76065 12.4733 2.74609 12.5364 2.77798 12.5836C2.82941 12.6604 2.83094 12.7078 2.81655 12.7251C2.79956 12.7455 2.74694 12.7561 2.69172 12.7378C2.65609 12.7261 2.57328 12.6855 2.57328 12.563C2.57328 12.4652 2.62097 12.3755 2.70412 12.3172C2.78744 12.2588 2.89529 12.2421 2.99922 12.2729C3.12757 12.3101 3.21723 12.4384 3.21723 12.5849C3.21734 12.6896 3.19367 12.7956 3.14864 12.8914ZM3.14864 11.4199C3.19355 11.5158 3.21729 11.6217 3.21729 11.7266C3.21729 11.8732 3.12768 12.0014 2.99928 12.0385C2.89512 12.0694 2.78733 12.0527 2.70418 11.9942C2.62103 11.9359 2.57334 11.8463 2.57334 11.7484C2.57334 11.6259 2.65615 11.5854 2.69178 11.5737C2.747 11.5553 2.79968 11.5659 2.81661 11.5864C2.831 11.6037 2.82947 11.651 2.77804 11.7278C2.74615 11.7751 2.76071 11.8381 2.81072 11.8684C2.86113 11.8986 2.92729 11.8846 2.95889 11.8371C3.09596 11.6332 3.02284 11.5056 2.985 11.4601C2.90724 11.367 2.7611 11.3354 2.62131 11.3813C2.6054 11.3866 2.58926 11.3931 2.57334 11.4007V11.1432L2.57351 11.1435C2.57674 11.197 2.62352 11.2394 2.68062 11.2394C2.73992 11.2394 2.78795 11.1939 2.78795 11.1376C2.78795 11.0712 2.73901 10.956 2.57334 10.9203V10.7303C2.57334 10.6741 2.52537 10.6285 2.46601 10.6285C2.40665 10.6285 2.35867 10.674 2.35867 10.7303V10.9203C2.193 10.956 2.14406 11.0712 2.14406 11.1376C2.14406 11.1938 2.19192 11.2427 2.25117 11.2427C2.31047 11.2427 2.35828 11.2005 2.35828 11.1443C2.35833 11.1441 2.35867 11.1439 2.35867 11.1439L2.35873 11.4007C2.34281 11.393 2.32667 11.3865 2.31075 11.3813C2.17096 11.3354 2.02478 11.367 1.94706 11.46C1.90923 11.5055 1.83605 11.6332 1.97318 11.837C2.00506 11.8844 2.07128 11.8981 2.12135 11.8683C2.17136 11.8381 2.18592 11.775 2.15403 11.7278C2.1026 11.651 2.10107 11.6036 2.11546 11.5863C2.13234 11.5659 2.18495 11.5553 2.24029 11.5736C2.27592 11.5853 2.35873 11.6259 2.35873 11.7484C2.35873 11.8462 2.31104 11.9359 2.22789 11.9942C2.14457 12.0526 2.03695 12.0693 1.93279 12.0385C1.80444 12.0013 1.71478 11.873 1.71478 11.7265C1.71478 11.6217 1.73846 11.5157 1.78343 11.4199L2.46606 9.96289L3.14864 11.4199ZM2.57306 9.10131C2.53245 9.13129 2.49642 9.16719 2.46606 9.20775C2.43576 9.16719 2.39968 9.13135 2.35907 9.10131C2.39968 9.07133 2.4357 9.03544 2.46606 8.99487C2.49637 9.03538 2.53239 9.07128 2.57306 9.10131ZM3.14864 6.78264L2.46601 8.23962L1.78337 6.78264C1.73846 6.68679 1.71472 6.58083 1.71472 6.476C1.71472 6.32942 1.80433 6.20122 1.93273 6.16403C2.03707 6.13341 2.14468 6.1499 2.22783 6.20836C2.31098 6.26666 2.35867 6.35628 2.35867 6.45413C2.35867 6.57664 2.27586 6.61715 2.24024 6.62892C2.1849 6.6474 2.13228 6.63671 2.1154 6.61618C2.10101 6.59888 2.10254 6.55154 2.15397 6.47476C2.18586 6.42742 2.1713 6.3644 2.12129 6.3342C2.07116 6.30422 2.00506 6.31808 1.97312 6.36547C1.83605 6.56933 1.90917 6.69694 1.94701 6.74251C2.02472 6.83557 2.17091 6.86738 2.3107 6.82122C2.32661 6.81601 2.34276 6.80951 2.35867 6.80183V7.05931L2.3585 7.05898C2.35527 7.00552 2.30849 6.96313 2.25139 6.96313C2.19209 6.96313 2.14406 7.00864 2.14406 7.06495C2.14406 7.13136 2.193 7.24656 2.35867 7.28224V7.47218C2.35867 7.52843 2.40665 7.574 2.46601 7.574C2.52537 7.574 2.57334 7.52849 2.57334 7.47218V7.28224C2.73901 7.24656 2.78795 7.13136 2.78795 7.06495C2.78795 7.00869 2.74009 6.95974 2.68084 6.95974C2.62154 6.95974 2.57374 7.00192 2.57374 7.05818C2.57368 7.05834 2.57334 7.05861 2.57334 7.05861L2.57328 6.80177C2.5892 6.80945 2.60534 6.81596 2.62126 6.82117C2.76105 6.86727 2.90718 6.83546 2.98495 6.74245C3.02278 6.69694 3.09596 6.56928 2.95884 6.36542C2.92695 6.31787 2.86073 6.304 2.81066 6.33415C2.76065 6.3644 2.74609 6.42743 2.77798 6.47471C2.82941 6.55149 2.83094 6.59883 2.81655 6.61613C2.79956 6.6366 2.74694 6.6474 2.69172 6.62886C2.65609 6.61715 2.57328 6.57658 2.57328 6.45408C2.57328 6.35623 2.62097 6.26655 2.70412 6.20831C2.78744 6.14985 2.89529 6.13335 2.99922 6.16398C3.12757 6.20116 3.21723 6.32942 3.21723 6.47594C3.21734 6.58083 3.19367 6.68679 3.14864 6.78264ZM3.14864 5.3111C3.19355 5.40696 3.21729 5.51292 3.21729 5.61775C3.21729 5.76433 3.12768 5.89253 2.99928 5.92971C2.89512 5.96055 2.78733 5.94384 2.70418 5.88538C2.62103 5.82709 2.57334 5.73746 2.57334 5.63962C2.57334 5.51711 2.65615 5.4766 2.69178 5.46483C2.747 5.44651 2.79968 5.45704 2.81661 5.47756C2.831 5.49486 2.82947 5.5422 2.77804 5.61898C2.74615 5.66632 2.76071 5.72929 2.81072 5.75954C2.86113 5.78953 2.92729 5.77583 2.95889 5.72827C3.09596 5.52442 3.02284 5.3968 2.985 5.35124C2.90724 5.25818 2.7611 5.22637 2.62131 5.27252C2.6054 5.27774 2.58926 5.28424 2.57334 5.29192V5.03444C2.57334 5.03449 2.57351 5.0346 2.57351 5.0346C2.57674 5.08823 2.62352 5.13051 2.68062 5.13051C2.73992 5.13051 2.78795 5.085 2.78795 5.02869C2.78795 4.96228 2.73901 4.84708 2.57334 4.8114V4.62146C2.57334 4.5652 2.52537 4.51964 2.46601 4.51964C2.40665 4.51964 2.35867 4.56515 2.35867 4.62146V4.8114C2.193 4.84708 2.14406 4.96228 2.14406 5.02869C2.14406 5.08495 2.19192 5.1339 2.25117 5.1339C2.31047 5.1339 2.35828 5.09172 2.35828 5.03546C2.35833 5.0353 2.35867 5.03503 2.35873 5.03487V5.29187C2.34281 5.28418 2.32667 5.27768 2.31075 5.27247C2.17096 5.22637 2.02478 5.25818 1.94706 5.35119C1.90923 5.3967 1.83605 5.52436 1.97318 5.72822C2.00506 5.77556 2.07128 5.78931 2.12135 5.75949C2.17136 5.72924 2.18592 5.66621 2.15403 5.61893C2.1026 5.54215 2.10107 5.49481 2.11546 5.47751C2.13234 5.45704 2.18495 5.44651 2.24029 5.46477C2.27592 5.47649 2.35873 5.51706 2.35873 5.63956C2.35873 5.73741 2.31104 5.82708 2.22789 5.88533C2.14457 5.94379 2.03695 5.9605 1.93279 5.92966C1.80444 5.89248 1.71478 5.76422 1.71478 5.61769C1.71478 5.51286 1.73846 5.40691 1.78343 5.31105L2.46606 3.85407L3.14864 5.3111ZM2.35901 2.99249C2.39962 2.96251 2.43565 2.92661 2.46601 2.88605C2.49631 2.92661 2.53239 2.96245 2.573 2.99249C2.53239 3.02247 2.49637 3.05836 2.46601 3.09893C2.4357 3.05836 2.39968 3.02247 2.35901 2.99249Z" fill="#FFE15A"/>
<path d="M15.3349 10.3502C16.7615 10.3502 17.918 9.25305 17.918 7.89969C17.918 6.54633 16.7615 5.44922 15.3349 5.44922C13.9082 5.44922 12.7517 6.54633 12.7517 7.89969C12.7517 9.25305 13.9082 10.3502 15.3349 10.3502Z" fill="#FFE15A"/>
<path d="M15.5291 4.77551C15.5291 4.87701 15.4424 4.95933 15.3354 4.95933C15.2284 4.95933 15.1416 4.87701 15.1416 4.77551C15.1416 4.67401 15.3354 4.22412 15.3354 4.22412C15.3354 4.22412 15.5291 4.67401 15.5291 4.77551Z" fill="#FFE15A"/>
<path d="M15.1416 11.0246C15.1416 10.9231 15.2284 10.8408 15.3354 10.8408C15.4424 10.8408 15.5291 10.9231 15.5291 11.0246C15.5291 11.1261 15.3354 11.576 15.3354 11.576C15.3354 11.576 15.1416 11.1262 15.1416 11.0246Z" fill="#FFE15A"/>
<path d="M18.6291 8.08394C18.5221 8.08394 18.4353 8.00162 18.4353 7.90012C18.4353 7.79862 18.5221 7.71631 18.6291 7.71631C18.7361 7.71631 19.2103 7.90012 19.2103 7.90012C19.2103 7.90012 18.7361 8.08394 18.6291 8.08394Z" fill="#FFE15A"/>
<path d="M12.0415 7.71631C12.1484 7.71631 12.2352 7.79863 12.2352 7.90012C12.2352 8.00162 12.1484 8.08394 12.0415 8.08394C11.9345 8.08394 11.4602 7.90012 11.4602 7.90012C11.4602 7.90012 11.9345 7.71631 12.0415 7.71631Z" fill="#FFE15A"/>
<path d="M17.8015 5.82069C17.7258 5.89247 17.6032 5.89247 17.5275 5.82069C17.4517 5.7489 17.4518 5.63257 17.5275 5.56073C17.6031 5.48889 18.0755 5.30078 18.0755 5.30078C18.0755 5.30078 17.8772 5.7489 17.8015 5.82069Z" fill="#FFE15A"/>
<path d="M12.8692 9.97962C12.9449 9.90783 13.0675 9.90783 13.1432 9.97962C13.2189 10.0514 13.2189 10.1677 13.1432 10.2396C13.0675 10.3114 12.5952 10.4995 12.5952 10.4995C12.5952 10.4995 12.7935 10.0515 12.8692 9.97962Z" fill="#FFE15A"/>
<path d="M17.5275 10.2396C17.4518 10.1678 17.4518 10.0515 17.5275 9.97964C17.6031 9.9078 17.7258 9.90785 17.8015 9.97964C17.8772 10.0514 18.0755 10.4995 18.0755 10.4995C18.0755 10.4995 17.6031 10.3113 17.5275 10.2396Z" fill="#FFE15A"/>
<path d="M13.1433 5.56068C13.2189 5.63246 13.2189 5.74879 13.1433 5.82063C13.0676 5.89247 12.945 5.89241 12.8692 5.82063C12.7935 5.74884 12.5952 5.30078 12.5952 5.30078C12.5952 5.30078 13.0676 5.48895 13.1433 5.56068Z" fill="#FFE15A"/>
<path d="M14.254 4.94305C14.295 5.03687 14.248 5.14433 14.1491 5.18318C14.0502 5.22203 13.9369 5.17748 13.896 5.08367C13.855 4.98985 13.8525 4.50391 13.8525 4.50391C13.8525 4.50391 14.2131 4.84924 14.254 4.94305Z" fill="#FFE15A"/>
<path d="M16.4169 10.8572C16.3759 10.7634 16.4229 10.6559 16.5218 10.6171C16.6207 10.5782 16.734 10.6228 16.7749 10.7166C16.8159 10.8104 16.8184 11.2964 16.8184 11.2964C16.8184 11.2964 16.4578 10.951 16.4169 10.8572Z" fill="#FFE15A"/>
<path d="M18.4525 6.87401C18.3536 6.91285 18.2403 6.86831 18.1994 6.7745C18.1584 6.68068 18.2054 6.57322 18.3043 6.53438C18.4032 6.49553 18.9154 6.49316 18.9154 6.49316C18.9154 6.49316 18.5514 6.8351 18.4525 6.87401Z" fill="#FFE15A"/>
<path d="M12.2183 8.92566C12.3172 8.88681 12.4305 8.93136 12.4714 9.02517C12.5124 9.11899 12.4654 9.22645 12.3665 9.2653C12.2676 9.30415 11.7554 9.30651 11.7554 9.30651C11.7554 9.30651 12.1194 8.96456 12.2183 8.92566Z" fill="#FFE15A"/>
<path d="M16.7749 5.08361C16.7339 5.17743 16.6206 5.22192 16.5218 5.18312C16.4229 5.14428 16.376 5.03676 16.4169 4.943C16.4578 4.84924 16.8183 4.50391 16.8183 4.50391C16.8183 4.50391 16.8158 4.98985 16.7749 5.08361Z" fill="#FFE15A"/>
<path d="M13.8959 10.7166C13.9369 10.6227 14.0502 10.5782 14.1491 10.617C14.2479 10.6559 14.2948 10.7634 14.2539 10.8572C14.213 10.951 13.8525 11.2963 13.8525 11.2963C13.8525 11.2963 13.855 10.8104 13.8959 10.7166Z" fill="#FFE15A"/>
<path d="M18.3045 9.26576C18.2056 9.22691 18.1587 9.1194 18.1996 9.02564C18.2405 8.93182 18.3539 8.88733 18.4527 8.92613C18.5515 8.96492 18.9156 9.30692 18.9156 9.30692C18.9156 9.30692 18.4033 9.30466 18.3045 9.26576Z" fill="#FFE15A"/>
<path d="M12.3665 6.53432C12.4654 6.57317 12.5123 6.68069 12.4714 6.77445C12.4304 6.86821 12.3171 6.91275 12.2182 6.87396C12.1194 6.83511 11.7554 6.49316 11.7554 6.49316C11.7554 6.49316 12.2677 6.49542 12.3665 6.53432Z" fill="#FFE15A"/>
<path d="M14.8827 4.7994C14.9036 4.89897 14.8355 4.99574 14.7305 5.01551C14.6255 5.03534 14.5235 4.9707 14.5027 4.87108C14.4818 4.77152 14.5793 4.29443 14.5793 4.29443C14.5793 4.29443 14.8618 4.69984 14.8827 4.7994Z" fill="#FFE15A"/>
<path d="M15.7879 11.0004C15.767 10.9009 15.8352 10.8041 15.9402 10.7843C16.0452 10.7645 16.1472 10.8291 16.168 10.9288C16.1889 11.0283 16.0914 11.5054 16.0914 11.5054C16.0914 11.5054 15.8088 11.1 15.7879 11.0004Z" fill="#FFE15A"/>
<path d="M18.6036 7.47074C18.4987 7.49057 18.3967 7.42593 18.3758 7.32631C18.3549 7.2267 18.4231 7.12998 18.5281 7.11021C18.633 7.09038 19.136 7.1829 19.136 7.1829C19.136 7.1829 18.7086 7.45097 18.6036 7.47074Z" fill="#FFE15A"/>
<path d="M12.0672 8.32926C12.1722 8.30943 12.2742 8.37407 12.295 8.47369C12.3159 8.5733 12.2478 8.67002 12.1428 8.68979C12.0378 8.70962 11.5349 8.61709 11.5349 8.61709C11.5349 8.61709 11.9623 8.34903 12.0672 8.32926Z" fill="#FFE15A"/>
<path d="M17.3265 5.4039C17.2671 5.48831 17.1468 5.51098 17.0578 5.45456C16.9688 5.39815 16.9449 5.28402 17.0044 5.19961C17.0638 5.1152 17.4884 4.84326 17.4884 4.84326C17.4884 4.84326 17.386 5.31943 17.3265 5.4039Z" fill="#FFE15A"/>
<path d="M13.3442 10.3961C13.4036 10.3117 13.524 10.2891 13.613 10.3455C13.7019 10.4018 13.7258 10.516 13.6664 10.6004C13.607 10.6848 13.1824 10.9568 13.1824 10.9568C13.1824 10.9568 13.2848 10.4806 13.3442 10.3961Z" fill="#FFE15A"/>
<path d="M17.9662 9.78831C17.8773 9.73194 17.8534 9.61776 17.9128 9.53335C17.9723 9.44894 18.0926 9.42626 18.1816 9.48268C18.2706 9.53904 18.5572 9.94182 18.5572 9.94182C18.5572 9.94182 18.0552 9.84467 17.9662 9.78831Z" fill="#FFE15A"/>
<path d="M12.7043 6.01093C12.7932 6.0673 12.8171 6.18148 12.7577 6.26589C12.6983 6.3503 12.5779 6.37298 12.4889 6.31656C12.3999 6.26014 12.1133 5.85742 12.1133 5.85742C12.1133 5.85742 12.6153 5.95457 12.7043 6.01093Z" fill="#FFE15A"/>
<path d="M13.6664 5.19955C13.7258 5.28397 13.7019 5.39809 13.613 5.45451C13.524 5.51093 13.4037 5.4882 13.3442 5.40384C13.2848 5.31943 13.1824 4.84326 13.1824 4.84326C13.1824 4.84326 13.607 5.1152 13.6664 5.19955Z" fill="#FFE15A"/>
<path d="M17.0041 10.5999C16.9447 10.5155 16.9686 10.4014 17.0575 10.3449C17.1464 10.2886 17.2668 10.3113 17.3263 10.3956C17.3857 10.48 17.4881 10.9562 17.4881 10.9562C17.4881 10.9562 17.0636 10.6843 17.0041 10.5999Z" fill="#FFE15A"/>
<path d="M18.1818 6.31656C18.0928 6.37292 17.9725 6.35025 17.913 6.26589C17.8536 6.18148 17.8775 6.06735 17.9664 6.01093C18.0554 5.95457 18.5574 5.85742 18.5574 5.85742C18.5574 5.85742 18.2708 6.26019 18.1818 6.31656Z" fill="#FFE15A"/>
<path d="M12.4891 9.48313C12.5781 9.42677 12.6984 9.44944 12.7579 9.5338C12.8173 9.61821 12.7934 9.73233 12.7045 9.78875C12.6155 9.84511 12.1135 9.94226 12.1135 9.94226C12.1135 9.94226 12.4001 9.53949 12.4891 9.48313Z" fill="#FFE15A"/>
<path d="M16.168 4.87108C16.1471 4.97064 16.0451 5.03533 15.9402 5.01551C15.8352 4.99568 15.767 4.89896 15.7879 4.7994C15.8088 4.69984 16.0914 4.29443 16.0914 4.29443C16.0914 4.29443 16.1888 4.77151 16.168 4.87108Z" fill="#FFE15A"/>
<path d="M14.5027 10.9288C14.5236 10.8292 14.6255 10.7645 14.7305 10.7843C14.8354 10.8042 14.9036 10.9009 14.8827 11.0004C14.8618 11.1 14.5793 11.5054 14.5793 11.5054C14.5793 11.5054 14.4818 11.0283 14.5027 10.9288Z" fill="#FFE15A"/>
<path d="M18.5281 8.6898C18.4231 8.66997 18.3549 8.57325 18.3758 8.47369C18.3967 8.37412 18.4987 8.30943 18.6036 8.32926C18.7086 8.34908 19.136 8.6171 19.136 8.6171C19.136 8.6171 18.633 8.70957 18.5281 8.6898Z" fill="#FFE15A"/>
<path d="M12.1428 7.11068C12.2477 7.13051 12.3159 7.22723 12.295 7.32679C12.2741 7.42636 12.1722 7.49105 12.0672 7.47123C11.9623 7.4514 11.5349 7.18338 11.5349 7.18338C11.5349 7.18338 12.0378 7.09091 12.1428 7.11068Z" fill="#FFE15A"/>
<path d="M21.4119 8.54525C21.3363 8.51506 21.2498 8.54966 21.2182 8.62101C21.2182 8.62134 21.2182 8.62134 21.2182 8.62134C21.2177 8.62268 21.2147 8.62929 21.2097 8.64057C21.0977 8.8887 20.866 9.25134 20.6321 9.59248C20.85 8.92712 21.0492 8.21647 21.0631 8.1665C21.0839 8.09187 21.0373 8.01525 20.9588 7.99499C20.8801 7.97495 20.7992 8.01836 20.7772 8.09267C20.6755 8.43827 20.4676 8.89311 20.2757 9.27815C20.3109 8.84884 20.3175 8.45112 20.318 8.42232C20.3192 8.34629 20.2564 8.28342 20.1762 8.27982C20.1008 8.28202 20.0281 8.3342 20.0222 8.41017C19.8325 10.8855 17.3216 11.9928 17.0772 12.0946C16.9493 12.1067 16.3535 12.1704 15.8127 12.3485C15.7515 12.3687 15.6992 12.389 15.6472 12.4091C15.6279 12.4022 15.6072 12.3983 15.5854 12.3996C13.9257 12.5135 12.6023 11.8676 11.6512 10.4839C10.9326 9.43843 10.7073 8.34102 10.7051 8.33006C10.6899 8.25376 10.6128 8.2046 10.5321 8.21808C10.4517 8.23259 10.3988 8.30588 10.414 8.38218C10.42 8.41248 10.5189 8.8915 10.7913 9.52193C10.4269 8.97629 10.173 8.31528 10.0836 7.97103C10.0818 7.96415 10.0771 7.95894 10.0744 7.9526C10.0702 7.94287 10.0667 7.93309 10.0605 7.92466C10.0562 7.91869 10.0505 7.91434 10.0453 7.90913C10.0372 7.90102 10.0295 7.89306 10.0195 7.88699C10.0139 7.8835 10.0075 7.88178 10.0014 7.87904C9.99043 7.8742 9.97972 7.86942 9.96754 7.86722C9.9591 7.86566 9.95049 7.86668 9.94172 7.86652C9.93282 7.86641 9.92444 7.86426 9.91532 7.86577C9.91334 7.86609 9.91181 7.86738 9.90983 7.86781C9.9079 7.86818 9.90609 7.86759 9.90416 7.86797C9.89623 7.8698 9.89017 7.87453 9.88292 7.87748C9.87369 7.8813 9.86423 7.88414 9.85613 7.88946C9.84815 7.89467 9.8422 7.90144 9.83557 7.90795C9.82894 7.91439 9.82203 7.92009 9.81682 7.92756C9.81156 7.93513 9.80872 7.94368 9.80499 7.95211C9.80142 7.96033 9.79728 7.96807 9.79541 7.97694C9.79349 7.98602 9.79434 7.99537 9.79439 8.00488C9.79439 8.01245 9.79218 8.01971 9.7936 8.02744C9.79417 8.03078 9.7953 8.03411 9.79592 8.03733V8.03787C9.79609 8.03846 9.79632 8.03927 9.79649 8.03991C9.88813 8.55213 10.1065 9.0831 10.304 9.48802C9.99043 9.15043 9.72835 8.76147 9.63546 8.53112C9.6328 8.52441 9.62742 8.51973 9.62379 8.51371C9.6183 8.50442 9.61348 8.49491 9.60606 8.48722C9.6008 8.48174 9.5944 8.4782 9.58839 8.47363C9.57939 8.46675 9.57083 8.45982 9.56041 8.45509C9.55373 8.45208 9.54648 8.45112 9.5394 8.44902C9.52847 8.4459 9.51787 8.44247 9.50626 8.44177C9.49714 8.44118 9.48808 8.44338 9.47885 8.44451C9.4703 8.44553 9.46186 8.44451 9.45336 8.44703C9.45172 8.44752 9.45059 8.44875 9.44906 8.44929C9.44747 8.44977 9.44588 8.44945 9.4443 8.45004C9.43625 8.45294 9.43053 8.45859 9.42334 8.46262C9.4149 8.46734 9.4059 8.47127 9.3987 8.47739C9.39134 8.48368 9.38624 8.49147 9.38046 8.49894C9.37497 8.50598 9.36885 8.51226 9.36477 8.52011C9.36053 8.52833 9.35894 8.53725 9.35651 8.54611C9.35407 8.55476 9.35084 8.56282 9.35022 8.5719C9.34954 8.58098 9.35192 8.59007 9.35316 8.59925C9.35424 8.60721 9.35311 8.6151 9.35571 8.62295C9.51691 9.1162 9.90456 9.70306 10.2083 10.1165C9.9552 9.93147 9.76919 9.73137 9.71521 9.67098C9.70938 9.66442 9.70366 9.65782 9.69782 9.65126C9.6456 9.59167 9.55333 9.58318 9.49006 9.63176C9.42702 9.6806 9.41711 9.7685 9.46809 9.82852C9.47086 9.83185 9.48196 9.84501 9.50054 9.86559C9.7228 10.1165 9.96494 10.3506 10.1843 10.5483L9.88423 10.4269C9.8158 10.3989 9.73537 10.4242 9.69793 10.4859C9.66044 10.5477 9.67737 10.6259 9.73741 10.6687C9.76664 10.6893 10.298 11.0659 10.7581 11.2885C10.7147 11.291 10.6638 11.288 10.6068 11.2838C10.5372 11.2775 10.4688 11.3247 10.4519 11.3917C10.4352 11.4589 10.4723 11.5276 10.5396 11.5539C10.5509 11.5583 10.6911 11.6132 10.8642 11.6716C10.8238 11.6872 10.7917 11.7194 10.7784 11.7611C10.7584 11.8234 10.7865 11.8909 10.846 11.9233C10.8616 11.9318 11.071 12.0457 11.3301 12.1467C11.3232 12.1569 11.3175 12.1678 11.3133 12.1799C11.293 12.2389 11.3162 12.3037 11.3701 12.3391C11.4151 12.3685 12.4213 13.0162 13.5965 13.0162C13.6736 13.0162 13.7516 13.0135 13.83 13.0075C13.9114 13.0014 13.9724 12.9337 13.9659 12.8562C13.9593 12.7788 13.8886 12.7203 13.8063 12.7275C13.068 12.7846 12.3568 12.5216 11.9338 12.3207C11.9897 12.3077 12.0218 12.296 12.0298 12.293C12.095 12.2677 12.1326 12.2026 12.1199 12.137C12.1071 12.0715 12.0476 12.0234 11.9771 12.022C11.8054 12.0187 11.5675 11.9394 11.3627 11.8542C11.44 11.8175 11.4852 11.7823 11.4892 11.7793C11.5338 11.7439 11.5526 11.6874 11.5374 11.6341C11.5221 11.5811 11.4754 11.5413 11.4182 11.5326C11.3553 11.5227 11.2768 11.5034 11.1947 11.4798C11.2746 11.4362 11.3086 11.3882 11.3216 11.3637C11.3422 11.3248 11.3426 11.2792 11.3229 11.2399C11.3031 11.2007 11.2653 11.1724 11.2204 11.1633C11.1817 11.1554 11.1378 11.1419 11.0904 11.1244C11.0991 11.1161 11.107 11.1068 11.1135 11.0961C11.1512 11.0354 11.1356 10.9575 11.0771 10.9138C11.074 10.9116 10.959 10.826 10.7849 10.6835C10.8126 10.6739 10.837 10.6561 10.8546 10.632C10.892 10.5809 10.8894 10.5126 10.8484 10.4642C10.8451 10.4603 10.73 10.323 10.5713 10.1144C10.6237 10.153 10.676 10.1924 10.7283 10.2244C10.753 10.2392 10.7808 10.2466 10.8085 10.2466C10.846 10.2466 10.883 10.2332 10.9115 10.2071C10.9232 10.1963 10.9324 10.184 10.9396 10.1708C11.0295 10.2619 11.1239 10.3446 11.2231 10.4151C11.236 10.4243 11.2517 10.4241 11.2662 10.4288C11.3082 10.4956 11.352 10.5625 11.3978 10.6295C12.2975 11.9426 13.5659 12.6459 15.0873 12.6882C14.9472 12.7689 14.7951 12.8523 14.5544 12.9412C14.5018 12.9607 14.4553 12.9801 14.4087 12.9996C14.3861 13.0038 14.365 13.0116 14.3474 13.0248C13.9271 13.2094 13.7531 13.3918 13.6825 13.5193C13.6121 13.6461 13.6729 13.7762 13.7589 13.8438C13.7856 13.8646 13.8197 13.8753 13.8538 13.8753C13.8772 13.8753 13.9007 13.8704 13.9219 13.8602C13.9743 13.8355 14.0093 13.783 14.007 13.7279C14.013 13.7216 14.0388 13.7013 14.1195 13.6988C14.1784 13.6941 14.3022 13.7067 14.4468 13.7177C14.5843 13.7284 14.7493 13.7406 14.9246 13.7492C14.8149 13.8705 14.6874 14.0111 14.6874 14.0111C14.6491 14.0534 14.6407 14.1132 14.6662 14.1635C14.6918 14.214 14.7469 14.2453 14.8048 14.2433C14.9218 14.2394 15.0014 14.2372 15.0536 14.2362C15.0991 14.2928 15.155 14.3152 15.1911 14.324C15.2929 14.3487 15.3945 14.31 15.471 14.2642C15.5289 14.3038 15.5867 14.3205 15.6326 14.3268C15.736 14.3402 15.8318 14.3117 15.9011 14.2793C15.9729 14.3233 16.0432 14.3345 16.0967 14.3345C16.0975 14.3345 16.0983 14.3345 16.0992 14.3345C16.2148 14.3339 16.3159 14.281 16.3875 14.2291C16.4507 14.2647 16.5112 14.2762 16.5579 14.2782C16.664 14.2818 16.7519 14.2431 16.8103 14.2068C17.0191 14.2466 17.1991 14.1533 17.318 14.0504C17.3723 14.0803 17.4239 14.0877 17.465 14.0858C17.5707 14.0822 17.6513 14.0212 17.703 13.9666C17.9397 13.9938 18.1096 13.9523 18.2077 13.8418C18.2613 13.7816 18.283 13.7139 18.2889 13.6521C18.9456 13.6486 19.005 13.3084 19.0098 13.2664C19.0141 13.2282 19.0019 13.1901 18.9757 13.1608C18.9497 13.1314 18.9119 13.1133 18.8716 13.1111L17.1499 13.0129C17.0779 13.0079 17.0136 13.0537 16.9969 13.1205C16.9965 13.1216 16.9672 13.2253 16.8754 13.3083C16.7518 13.4202 16.5528 13.4793 16.3364 13.5106C16.3372 13.4918 16.3344 13.4727 16.3268 13.454C16.2973 13.3816 16.2114 13.3464 16.1352 13.3736C15.7798 13.5044 15.2044 13.488 14.7542 13.4583C14.8232 13.4048 14.9064 13.3517 14.9728 13.3171C15.0289 13.2878 15.0591 13.2277 15.0472 13.1679C15.0386 13.1244 15.0054 13.0942 14.9655 13.0747C15.0906 13.0147 15.1933 12.9568 15.2906 12.9005C15.4596 12.8023 15.6193 12.7097 15.9101 12.614C16.4714 12.429 17.121 12.3727 17.1275 12.3721C17.1423 12.371 17.1568 12.3674 17.1705 12.3622C17.1936 12.3531 19.0259 11.625 19.8892 9.94479C19.8778 9.99557 19.8657 10.042 19.8525 10.0826C19.83 10.1518 19.8664 10.2256 19.9367 10.2535C19.9911 10.2752 20.0529 10.264 20.0947 10.2272C20.0402 10.3636 19.9908 10.4709 19.9506 10.5343C19.9095 10.5989 19.9293 10.6826 19.9954 10.7243C20.0109 10.7339 20.0275 10.7404 20.0446 10.7443C19.9777 10.8371 19.91 10.9249 19.8424 11.0053C19.7975 11.0589 19.8001 11.1352 19.8471 11.1857C19.7311 11.301 19.6282 11.396 19.5501 11.4564C19.499 11.4956 19.4824 11.5612 19.5058 11.6172C19.4304 11.6581 19.3685 11.687 19.3256 11.6993C19.2535 11.7199 19.2093 11.7887 19.2229 11.859C19.23 11.8961 19.252 11.9274 19.2823 11.948C19.1917 11.971 19.0926 11.9932 18.985 12.0135C18.9244 12.025 18.8776 12.0709 18.8677 12.1288C18.8579 12.1867 18.8868 12.2443 18.9404 12.2734C18.9451 12.2759 18.9957 12.3031 19.0731 12.3343C18.7865 12.4438 18.2748 12.5869 17.4352 12.6654C17.3538 12.6731 17.2942 12.742 17.3023 12.8191C17.3103 12.8963 17.3806 12.9498 17.4644 12.9454C19.0584 12.7958 19.5506 12.4173 19.5707 12.4011C19.6167 12.3645 19.6349 12.305 19.6167 12.2507C19.6045 12.2147 19.5779 12.1857 19.5437 12.1688C20.053 12.0168 20.2716 11.8485 20.283 11.8395C20.3389 11.7955 20.3529 11.7195 20.3162 11.66C20.2791 11.6004 20.202 11.5746 20.1348 11.6004C20.1158 11.6072 20.0856 11.6143 20.0474 11.6215C20.3891 11.3995 20.7519 11.1351 20.9115 11.0171C20.9395 10.9973 20.965 10.9783 20.9874 10.9605C21.0494 10.9111 21.0581 10.8237 21.0069 10.7643C20.9562 10.705 20.8637 10.695 20.8003 10.7425C20.7772 10.7598 20.7531 10.7777 20.7282 10.7961C20.6546 10.848 20.5604 10.9067 20.4577 10.967C20.8455 10.5493 21.236 10.0964 21.3475 9.96629C21.3577 9.95447 21.3677 9.9427 21.3778 9.93088C21.429 9.87048 21.419 9.78209 21.3554 9.73352C21.2915 9.68414 21.1982 9.6943 21.1471 9.75437L21.1468 9.75469L21.1467 9.75502C21.1439 9.75802 21.1314 9.77285 21.1103 9.79757C20.9934 9.93287 20.8704 10.0639 20.749 10.1862C21.1441 9.50688 21.4433 8.8382 21.4872 8.73912C21.4887 8.73557 21.4902 8.73202 21.4918 8.72837C21.5232 8.65728 21.4875 8.57491 21.4119 8.54525ZM14.4684 13.2826L14.5088 13.2876C14.4592 13.3316 14.4188 13.3809 14.3868 13.4319C14.3164 13.4265 14.2526 13.4218 14.2026 13.4197C14.2715 13.3769 14.3602 13.3306 14.4684 13.2826Z" fill="#FFE15A"/>
</g>
<defs>
<clipPath id="clip0">
<rect width="29" height="18" fill="white"/>
</clipPath>
</defs>
</svg>
