<svg width="12" height="12" viewBox="0 0 12 12" fill="none" xmlns="http://www.w3.org/2000/svg">
<path fill-rule="evenodd" clip-rule="evenodd" d="M0.283608 2.52066C0 3.23315 0 4.13189 0 5.92937V10.3075C0 11.123 0.986065 11.5315 1.56276 10.9548C2.24948 10.2681 3.18087 9.88228 4.15203 9.88228H6.9176C7.79211 9.88228 8.22937 9.88228 8.5937 9.81417C10.2171 9.51071 11.4872 8.24069 11.7906 6.61724C11.8587 6.25292 11.8587 5.81566 11.8587 4.94114C11.8587 4.06662 11.8587 3.62936 11.7906 3.26503C11.4872 1.64159 10.2171 0.371564 8.5937 0.0681019C8.22937 0 7.79211 0 6.9176 0H5.92937C4.13189 0 3.23315 0 2.52066 0.283608C1.49925 0.690191 0.690191 1.49925 0.283608 2.52066ZM2.96468 5.92937C3.51047 5.92937 3.95291 5.48692 3.95291 4.94114C3.95291 4.39536 3.51047 3.95291 2.96468 3.95291C2.4189 3.95291 1.97646 4.39536 1.97646 4.94114C1.97646 5.48692 2.4189 5.92937 2.96468 5.92937ZM6.91759 4.94114C6.91759 5.48692 6.47515 5.92937 5.92937 5.92937C5.38358 5.92937 4.94114 5.48692 4.94114 4.94114C4.94114 4.39536 5.38358 3.95291 5.92937 3.95291C6.47515 3.95291 6.91759 4.39536 6.91759 4.94114ZM8.89405 5.92937C9.43983 5.92937 9.88228 5.48692 9.88228 4.94114C9.88228 4.39536 9.43983 3.95291 8.89405 3.95291C8.34827 3.95291 7.90582 4.39536 7.90582 4.94114C7.90582 5.48692 8.34827 5.92937 8.89405 5.92937Z" fill="#3582C4"/>
</svg>
