<svg width="17" height="17" viewBox="0 0 17 17" fill="none" xmlns="http://www.w3.org/2000/svg">
<path fill-rule="evenodd" clip-rule="evenodd" d="M4.00104 1.45104C4.33299 1.1191 4.33299 0.580905 4.00104 0.248959C3.6691 -0.0829864 3.1309 -0.0829864 2.79896 0.248959L0.248959 2.79896C-0.0829864 3.1309 -0.0829864 3.6691 0.248959 4.00104C0.580905 4.33299 1.1191 4.33299 1.45104 4.00104L4.00104 1.45104ZM12.999 0.248959C12.667 0.580905 12.667 1.1191 12.999 1.45104L15.549 4.00104C15.8809 4.33299 16.4191 4.33299 16.751 4.00104C17.083 3.6691 17.083 3.1309 16.751 2.79896L14.201 0.248959C13.8691 -0.0829864 13.3309 -0.0829864 12.999 0.248959ZM8.5 15.3C11.7861 15.3 14.45 12.6361 14.45 9.35C14.45 6.06391 11.7861 3.4 8.5 3.4C5.21391 3.4 2.55 6.06391 2.55 9.35C2.55 12.6361 5.21391 15.3 8.5 15.3ZM8.5 17C12.725 17 16.15 13.575 16.15 9.35C16.15 5.12502 12.725 1.7 8.5 1.7C4.27502 1.7 0.85 5.12502 0.85 9.35C0.85 13.575 4.27502 17 8.5 17ZM8.5 10.4125C7.9132 10.4125 7.4375 9.9368 7.4375 9.35V5.95C7.4375 5.3632 7.9132 4.8875 8.5 4.8875C9.0868 4.8875 9.5625 5.3632 9.5625 5.95V9.35C9.5625 9.9368 9.0868 10.4125 8.5 10.4125ZM8.5 13.6C9.0868 13.6 9.5625 13.1243 9.5625 12.5375C9.5625 11.9507 9.0868 11.475 8.5 11.475C7.9132 11.475 7.4375 11.9507 7.4375 12.5375C7.4375 13.1243 7.9132 13.6 8.5 13.6Z" fill="#F0BB00"/>
</svg>
