<svg width="16" height="18" viewBox="0 0 16 18" fill="none" xmlns="http://www.w3.org/2000/svg">
<path fill-rule="evenodd" clip-rule="evenodd" d="M6.89216 0C5.46426 0 4.30396 1.14576 4.28048 2.56807H1.75602H0.9C0.402944 2.56807 0 2.97101 0 3.46807C0 3.96513 0.402944 4.36807 0.9 4.36807H1.75602H1.921L2.61931 14.75L2.61944 14.7519C2.70148 16.0485 3.77709 17.0584 5.07657 17.0584H10.42C11.7195 17.0584 12.7951 16.0486 12.8772 14.752L12.8773 14.75L13.5756 4.36807H13.7403H14.5964C15.0934 4.36807 15.4964 3.96513 15.4964 3.46807C15.4964 2.97101 15.0934 2.56807 14.5964 2.56807H13.7403H11.2159C11.1924 1.14576 10.0321 0 8.60421 0H6.89216ZM9.41508 2.56807H6.08129C6.10413 2.14004 6.45844 1.8 6.89216 1.8H8.60421C9.03793 1.8 9.39224 2.14004 9.41508 2.56807ZM6.67872 6.85367C6.65744 6.35707 6.23761 5.97175 5.74101 5.99303C5.24441 6.01432 4.85909 6.43414 4.88037 6.93074L5.13718 12.9229C5.15846 13.4195 5.57829 13.8048 6.07489 13.7835C6.57149 13.7623 6.95681 13.3424 6.93553 12.8458L6.67872 6.85367ZM10.6164 6.93074C10.6377 6.43414 10.2524 6.01432 9.75579 5.99303C9.25919 5.97175 8.83936 6.35707 8.81808 6.85367L8.56127 12.8458C8.53999 13.3424 8.92531 13.7623 9.42191 13.7835C9.91851 13.8048 10.3383 13.4195 10.3596 12.9229L10.6164 6.93074Z" fill="#CDD3DB"/>
</svg>
