<svg width="13" height="13" viewBox="0 0 13 13" fill="none" xmlns="http://www.w3.org/2000/svg">
<path fill-rule="evenodd" clip-rule="evenodd" d="M11.9109 3.82525C11.6295 4.10667 11.4887 4.24738 11.3361 4.32104C11.0615 4.45356 10.7414 4.45357 10.4668 4.32104C10.3142 4.24738 10.1735 4.10667 9.89208 3.82525L8.68081 2.61398C8.39939 2.33256 8.25868 2.19185 8.18502 2.03922C8.05249 1.76461 8.05249 1.44455 8.18502 1.16994C8.25868 1.01731 8.39939 0.8766 8.68081 0.595183C8.96222 0.313765 9.10293 0.173056 9.25556 0.0993959C9.53017 -0.033132 9.85024 -0.033132 10.1248 0.099396C10.2775 0.173057 10.4182 0.313765 10.6996 0.595182L11.9109 1.80646C12.1923 2.08788 12.333 2.22858 12.4067 2.38121C12.5392 2.65582 12.5392 2.97589 12.4067 3.25049C12.333 3.40312 12.1923 3.54383 11.9109 3.82525ZM2 12.5061C1.05719 12.5061 0.585786 12.5061 0.292893 12.2132C0 11.9203 0 11.4489 0 10.5061V10.1044C0 9.69567 0 9.49129 0.0761205 9.30752C0.152241 9.12375 0.296756 8.97923 0.585787 8.6902L5.44968 3.82631C6.11635 3.15964 6.44968 2.82631 6.86389 2.82631C7.27811 2.82631 7.61144 3.15964 8.27811 3.82631L8.67975 4.22795C9.34641 4.89462 9.67975 5.22795 9.67975 5.64216C9.67975 6.05638 9.34641 6.38971 8.67975 7.05638L3.81585 11.9203C3.52682 12.2093 3.38231 12.3538 3.19854 12.4299C3.01477 12.5061 2.81039 12.5061 2.40164 12.5061H2Z" fill="#8693A4"/>
</svg>
