<svg width="21" height="17" viewBox="0 0 21 17" fill="none" xmlns="http://www.w3.org/2000/svg">
<path fill-rule="evenodd" clip-rule="evenodd" d="M16.8 17C18.5397 17 19.95 15.5729 19.95 13.8125V11.4032C20.5777 11.0358 21 10.349 21 9.5625V7.4375C21 6.65095 20.5777 5.96421 19.95 5.59679L19.95 3.1875C19.95 1.42709 18.5397 0 16.8 0H3.15C1.4103 0 0 1.42709 0 3.1875V13.8125C0 15.5729 1.4103 17 3.15 17H16.8ZM17.85 3.1875L17.85 5.3125H16.8C15.0603 5.3125 13.65 6.73959 13.65 8.5C13.65 10.2604 15.0603 11.6875 16.8 11.6875H17.85V13.8125C17.85 14.3993 17.3799 14.875 16.8 14.875L3.15 14.875C2.5701 14.875 2.1 14.3993 2.1 13.8125L2.1 3.1875C2.1 2.6007 2.5701 2.125 3.15 2.125L16.8 2.125C17.3799 2.125 17.85 2.6007 17.85 3.1875ZM15.75 8.5C15.75 7.9132 16.2201 7.4375 16.8 7.4375H18.9V9.5625H16.8C16.2201 9.5625 15.75 9.0868 15.75 8.5Z" fill="#ECF5FC"/>
</svg>
