<svg width="22" height="19" viewBox="0 0 22 19" fill="none" xmlns="http://www.w3.org/2000/svg">
<path fill-rule="evenodd" clip-rule="evenodd" d="M1.1 0C0.492487 0 0 0.472588 0 1.05556C0 1.63852 0.492487 2.11111 1.1 2.11111V1.05556L1.10001 2.11111H1.10006H1.10023H1.10037H1.10053H1.10072H1.10093H1.10209H1.10371H1.10469H1.10522H1.10578H1.10829H1.11124H1.11205H1.11289H1.11464H1.15693H1.31484H1.85625H2.42195L4.97735 12.9006C5.10911 13.4569 5.67635 13.8098 6.25575 13.7036C6.32271 13.7158 6.39183 13.7222 6.4625 13.7222H17.6C18.0585 13.7222 18.469 13.4493 18.63 13.0373L21.93 4.59285C22.0566 4.2687 22.0096 3.90553 21.8041 3.62098C21.5986 3.33643 21.2608 3.16667 20.9 3.16667H4.92805L4.37264 0.821622C4.25882 0.34104 3.81359 0 3.3 0H1.85625H1.31484H1.15693H1.15022H1.1439H1.14238H1.14089H1.13798H1.13248H1.12271H1.12161H1.12053H1.11948H1.11846H1.11746H1.11649H1.11464H1.10829H1.10578H1.10522H1.10469H1.10371H1.10093H1.10053H1.10037H1.10023H1.10006H1.10001L1.1 1.05556V0ZM5.42805 5.27778L6.92805 11.6111H16.8377L19.3127 5.27778H5.42805ZM8.8 14.7778C7.58497 14.7778 6.6 15.723 6.6 16.8889C6.6 18.0548 7.58497 19 8.8 19C10.015 19 11 18.0548 11 16.8889C11 15.723 10.015 14.7778 8.8 14.7778ZM13.2 16.8889C13.2 15.723 14.185 14.7778 15.4 14.7778C16.615 14.7778 17.6 15.723 17.6 16.8889C17.6 18.0548 16.615 19 15.4 19C14.185 19 13.2 18.0548 13.2 16.8889Z" fill="#3582C4"/>
</svg>
