<svg width="13" height="13" viewBox="0 0 13 13" fill="none" xmlns="http://www.w3.org/2000/svg">
<path fill-rule="evenodd" clip-rule="evenodd" d="M6.5 0C6.96873 0 7.40117 0.252336 7.63178 0.660416L9.21474 3.46159L11.9496 3.99663C12.426 4.08984 12.8108 4.44075 12.9474 4.9066C13.084 5.37244 12.9497 5.8756 12.5991 6.21137L10.519 8.20327L11.0002 11.513C11.07 11.9931 10.8667 12.4721 10.4728 12.7554C10.0789 13.0387 9.56011 13.079 9.12716 12.8601L6.5 11.5317L3.87284 12.8601C3.43988 13.079 2.92105 13.0387 2.52719 12.7554C2.13332 12.4721 1.92997 11.9931 1.99977 11.513L2.48097 8.20327L0.40091 6.21137C0.0502841 5.8756 -0.0840431 5.37244 0.0525771 4.9066C0.189197 4.44075 0.573999 4.08984 1.05043 3.99663L3.78525 3.46159L5.36822 0.660416C5.59883 0.252336 6.03127 0 6.5 0Z" fill="#212833"/>
</svg>
