<svg width="23" height="23" viewBox="0 0 23 23" fill="none" xmlns="http://www.w3.org/2000/svg">
<path fill-rule="evenodd" clip-rule="evenodd" d="M19.2265 10.0667C19.7721 10.0615 20.2185 9.61504 20.2238 9.06953L20.2618 5.1186C20.2643 4.85663 20.1627 4.60639 19.9792 4.42292C19.7958 4.23946 19.5455 4.1378 19.2836 4.14031L15.3325 4.17822C14.787 4.18346 14.3405 4.62992 14.3353 5.17543C14.3301 5.72094 14.768 6.15892 15.3136 6.15369L16.8557 6.13889L10.2739 12.629L7.04081 9.80734C6.65276 9.46867 6.06278 9.49396 5.69155 9.86516L0.705137 14.8512C0.315688 15.2406 0.309665 15.866 0.691683 16.2481C1.0737 16.6301 1.6991 16.6241 2.08855 16.2347L6.41527 11.9083L9.64345 14.7257C10.0295 15.0626 10.6158 15.0395 10.9877 14.6728L18.2636 7.49828L18.2483 9.08842C18.2431 9.63393 18.681 10.0719 19.2265 10.0667Z" fill="#B6C2CC"/>
</svg>
