<svg width="23" height="23" viewBox="0 0 23 23" fill="none" xmlns="http://www.w3.org/2000/svg">
<path fill-rule="evenodd" clip-rule="evenodd" d="M19.2265 12.5607C19.7721 12.566 20.2185 13.0124 20.2238 13.5579L20.2618 17.5088C20.2643 17.7708 20.1627 18.0211 19.9792 18.2045C19.7958 18.388 19.5455 18.4896 19.2836 18.4871L15.3325 18.4492C14.787 18.444 14.3405 17.9975 14.3353 17.452C14.3301 16.9065 14.768 16.4685 15.3136 16.4738L16.8557 16.4886L10.2739 9.99849L7.04081 12.8201C6.65276 13.1588 6.06278 13.1335 5.69155 12.7623L0.705137 7.77623C0.315688 7.38681 0.309665 6.76141 0.691683 6.37936C1.0737 5.99731 1.6991 6.00329 2.08855 6.39271L6.41527 10.7191L9.64345 7.90178C10.0295 7.56488 10.6158 7.58792 10.9877 7.95461L18.2636 15.1292L18.2483 13.539C18.2431 12.9935 18.681 12.5555 19.2265 12.5607Z" fill="#B6C2CC"/>
</svg>
