<svg width="19" height="19" viewBox="0 0 19 19" fill="none" xmlns="http://www.w3.org/2000/svg">
<path fill-rule="evenodd" clip-rule="evenodd" d="M9.5 0C10.1851 0 10.8171 0.368798 11.1541 0.965223L13.4677 5.05925L17.4648 5.84123C18.1611 5.97746 18.7235 6.49033 18.9232 7.17118C19.1228 7.85203 18.9265 8.58742 18.4141 9.07815L15.374 11.9894L16.0772 16.8266C16.1793 17.5283 15.8821 18.2284 15.3064 18.6425C14.7308 19.0565 13.9725 19.1155 13.3397 18.7956L9.5 16.8541L5.66031 18.7956C5.02752 19.1155 4.26923 19.0565 3.69358 18.6425C3.11793 18.2284 2.82073 17.5283 2.92275 16.8266L3.62603 11.9894L0.585945 9.07815C0.0734922 8.58742 -0.122832 7.85203 0.0768435 7.17118C0.276519 6.49033 0.838922 5.97746 1.53525 5.84123L5.5323 5.05925L7.84586 0.965223C8.18291 0.368798 8.81493 0 9.5 0Z" fill="#FFD12E"/>
</svg>
