<svg width="18" height="20" viewBox="0 0 18 20" fill="none" xmlns="http://www.w3.org/2000/svg">
<path fill-rule="evenodd" clip-rule="evenodd" d="M5.00001 7C5.00001 7.55228 5.44772 8 6.00001 8C6.55229 8 7.00001 7.55228 7.00001 7V6H11V7C11 7.55229 11.4477 8 12 8C12.5523 8 13 7.55228 13 7V6H13.5058L15.7916 18H2.20846L4.49418 6H5.00001V7ZM7.00001 4L11 4C11 2.89543 10.1046 2 9.00001 2C7.89544 2 7.00001 2.89543 7.00001 4ZM13 4C13 1.79086 11.2091 0 9.00001 0C6.79087 0 5.00001 1.79086 5.00001 4L3.66668 4C3.18654 4 2.77418 4.34124 2.68434 4.81289L0.0176698 18.8129C-0.0380872 19.1056 0.0396067 19.408 0.229582 19.6375C0.419558 19.8671 0.702021 20 1.00001 20H17C17.298 20 17.5805 19.8671 17.7704 19.6375C17.9604 19.408 18.0381 19.1056 17.9823 18.8129L15.3157 4.81289C15.2258 4.34124 14.8135 4 14.3333 4L13 4Z" fill="#5E6A78"/>
</svg>
