<svg width="16" height="20" viewBox="0 0 16 20" fill="none" xmlns="http://www.w3.org/2000/svg">
<path fill-rule="evenodd" clip-rule="evenodd" d="M2.57562 3.30285C4.04996 2.75981 6.37376 2.02521 8 2.02521C9.62624 2.02521 11.95 2.75981 13.4244 3.30285C13.7606 3.42669 14 3.76364 14 4.17632V14.3583C14 14.7377 13.7905 15.0853 13.4573 15.2588L8.45735 17.8627C8.17032 18.0122 7.82968 18.0122 7.54265 17.8627L2.54265 15.2588C2.20945 15.0853 2 14.7377 2 14.3583V4.17632C2 3.76364 2.23941 3.42669 2.57562 3.30285ZM8 0C5.97897 0 3.34963 0.862729 1.89196 1.39964C0.719191 1.8316 0 2.96304 0 4.17632V14.3583C0 15.4966 0.628358 16.5393 1.62796 17.0598L6.62796 19.6637C7.48905 20.1121 8.51095 20.1121 9.37204 19.6637L14.372 17.0598C15.3716 16.5393 16 15.4966 16 14.3583V4.17632C16 2.96304 15.2808 1.8316 14.108 1.39964C12.6504 0.862729 10.021 0 8 0ZM7.99988 3.79727C7.31775 3.79727 6.77258 4.37185 6.79984 5.06202L7.02491 10.7597C7.04584 11.2896 7.47616 11.7083 7.99988 11.7083C8.5236 11.7083 8.95392 11.2896 8.97485 10.7597L9.19992 5.06202C9.22718 4.37185 8.682 3.79727 7.99988 3.79727ZM6.5625 14.7144C6.5625 13.928 7.1921 13.2905 7.96875 13.2905C8.7454 13.2905 9.375 13.928 9.375 14.7144C9.375 15.5009 8.7454 16.1384 7.96875 16.1384C7.1921 16.1384 6.5625 15.5009 6.5625 14.7144Z" fill="#5E6A78"/>
</svg>
