<svg width="25" height="28" viewBox="0 0 25 28" fill="none" xmlns="http://www.w3.org/2000/svg">
<path fill-rule="evenodd" clip-rule="evenodd" d="M0.965926 4.78818C0.43246 4.93112 0.115877 5.47946 0.258819 6.01292C0.401761 6.54639 0.950098 6.86297 1.48356 6.72003L2.44949 6.46121C2.98296 6.31827 3.53129 6.63485 3.67423 7.16832L6.81268 18.8812C5.26116 19.7566 4.43516 21.5993 4.91756 23.3996C5.48933 25.5335 7.68268 26.7998 9.81654 26.228C11.6169 25.7456 12.7997 24.1089 12.7821 22.3276L22.0801 19.8362C22.6135 19.6932 22.9301 19.1449 22.7872 18.6114C22.6442 18.078 22.0959 17.7614 21.5624 17.9043L12.2644 20.3957C11.5512 19.1316 10.1959 18.3492 8.74453 18.3635L5.60609 6.65068C5.17726 5.05028 3.53225 4.10053 1.93185 4.52936L0.965926 4.78818ZM8.26363 20.4325C9.33056 20.1466 10.4272 20.7797 10.7131 21.8467C10.999 22.9136 10.3658 24.0103 9.2989 24.2962C8.23197 24.582 7.1353 23.9489 6.84941 22.8819C6.56353 21.815 7.19669 20.7183 8.26363 20.4325ZM11.0481 5.71014C8.91422 6.2819 7.64789 8.47525 8.21966 10.6091L9.51376 15.4387C10.0855 17.5726 12.2789 18.8389 14.4127 18.2672L19.2424 16.9731C21.3762 16.4013 22.6426 14.208 22.0708 12.0741L20.7767 7.24447C20.2049 5.1106 18.0116 3.84428 15.8777 4.41604L11.0481 5.71014ZM14.9482 8.14737C14.5177 7.89884 13.9673 8.04633 13.7188 8.47679L12.3045 10.9263C12.056 11.3567 12.2035 11.9072 12.634 12.1557C13.0644 12.4042 13.6149 12.2567 13.8634 11.8263L14.1912 11.2585L14.9229 13.9894C15.0516 14.4695 15.5451 14.7544 16.0252 14.6258C16.5053 14.4971 16.7903 14.0036 16.6616 13.5235L15.9299 10.7926L16.4977 11.1204C16.9281 11.369 17.4786 11.2215 17.7271 10.791C17.9756 10.3605 17.8281 9.81011 17.3977 9.56158L14.9482 8.14737Z" fill="#A9D1F1"/>
</svg>
