<svg width="13" height="16" viewBox="0 0 13 16" fill="none" xmlns="http://www.w3.org/2000/svg">
<path fill-rule="evenodd" clip-rule="evenodd" d="M5.84358 1.15079C4.31333 2.34769 2.89826 3.12114 0.98245 3.31714C0.433035 3.37334 -0.0181096 3.81586 0.000559332 4.36783C0.334537 14.2423 5.59621 15.5413 6.39129 15.6814C6.46021 15.6936 6.523 15.6936 6.59192 15.6814C7.38699 15.5413 12.6486 14.2423 12.9826 4.36783C13.0013 3.81586 12.5502 3.37334 12.0008 3.31714C10.0849 3.12114 8.66988 2.34769 7.13963 1.15079C6.7594 0.853383 6.22381 0.853382 5.84358 1.15079ZM9.86807 7.08528C10.2195 6.73381 10.2195 6.16396 9.86807 5.81249C9.5166 5.46102 8.94675 5.46102 8.59528 5.81249L5.80659 8.60118L4.73044 7.52503C4.37897 7.17356 3.80912 7.17356 3.45764 7.52503C3.10617 7.87651 3.10617 8.44635 3.45765 8.79783L5.17019 10.5104C5.52166 10.8618 6.09151 10.8618 6.44298 10.5104L9.86807 7.08528Z" fill="#A8EBE8"/>
</svg>
