<svg width="15" height="15" viewBox="0 0 15 15" fill="none" xmlns="http://www.w3.org/2000/svg">
<path fill-rule="evenodd" clip-rule="evenodd" d="M11.4924 -1.31134e-07L8.65432 -2.55192e-07C7.85867 -2.89971e-07 7.09561 0.316071 6.533 0.87868L0.878745 6.53293C-0.292829 7.70451 -0.29283 9.604 0.878743 10.7756L3.71686 13.6137C4.88843 14.7853 6.78793 14.7853 7.9595 13.6137L13.6138 7.95943C14.1764 7.39682 14.4924 6.63376 14.4924 5.83811L14.4924 3C14.4924 1.34315 13.1493 -5.87107e-08 11.4924 -1.31134e-07ZM8.19843 4.7205C8.19843 5.58952 8.90291 6.294 9.77193 6.294C10.6409 6.294 11.3454 5.58952 11.3454 4.7205C11.3454 3.85148 10.6409 3.147 9.77193 3.147C8.90291 3.147 8.19843 3.85148 8.19843 4.7205Z" fill="#F2CDE6"/>
</svg>
