<svg width="25" height="15" viewBox="0 0 25 15" fill="none" xmlns="http://www.w3.org/2000/svg">
<path fill-rule="evenodd" clip-rule="evenodd" d="M24.4117 1.04092C24.597 0.453735 24.4117 0.02669 23.5909 0.02669H20.8638C20.1754 0.02669 19.8577 0.400356 19.6723 0.800712C19.6723 0.800712 18.2691 4.21708 16.3098 6.43238C15.6743 7.07295 15.3831 7.28648 15.0389 7.28648C14.8535 7.28648 14.6152 7.07296 14.6152 6.48577V1.01423C14.6152 0.320284 14.4034 0 13.8209 0H9.53168C9.10805 0 8.84329 0.320283 8.84329 0.640568C8.84329 1.30783 9.82293 1.46797 9.92884 3.3363V7.39324C9.92884 8.27402 9.76998 8.43416 9.42578 8.43416C8.49909 8.43416 6.24855 4.9911 4.89823 1.06762C4.63346 0.293594 4.36869 0 3.68029 0H0.926692C0.132385 0 0 0.373664 0 0.77402C0 1.49466 0.926692 5.12455 4.31574 9.92883C6.56627 13.2117 9.76998 14.9733 12.656 14.9733C14.4034 14.9733 14.6152 14.573 14.6152 13.9057V11.4235C14.6152 10.6228 14.7741 10.4893 15.3301 10.4893C15.7273 10.4893 16.4422 10.7028 18.0572 12.2776C19.9106 14.1459 20.2284 15 21.261 15H23.9881C24.7824 15 25.1531 14.5996 24.9412 13.8256C24.7029 13.0516 23.8027 11.9306 22.6378 10.5961C22.0023 9.84875 21.0491 9.02135 20.7579 8.621C20.3607 8.08719 20.4666 7.87367 20.7579 7.39324C20.7314 7.39324 24.0675 2.64235 24.4117 1.04092Z" fill="white"/>
</svg>
