<svg width="19" height="17" viewBox="0 0 19 17" fill="none" xmlns="http://www.w3.org/2000/svg">
<path d="M8.58255 1.11573C8.9307 0.312852 10.0693 0.312853 10.4175 1.11573L12.1165 5.03381C12.2614 5.36796 12.5765 5.59691 12.9391 5.63146L17.1904 6.03657C18.0616 6.11958 18.4134 7.20245 17.7574 7.78167L14.5561 10.6083C14.2831 10.8493 14.1627 11.2198 14.2419 11.5753L15.1704 15.7437C15.3606 16.5979 14.4395 17.2672 13.6859 16.8223L10.0084 14.6511C9.69475 14.466 9.30525 14.466 8.99161 14.6511L5.31409 16.8223C4.5605 17.2672 3.63936 16.5979 3.82961 15.7437L4.75807 11.5753C4.83726 11.2198 4.71689 10.8493 4.44387 10.6083L1.24258 7.78167C0.58658 7.20245 0.938426 6.11958 1.8096 6.03657L6.06094 5.63146C6.42351 5.59691 6.73863 5.36796 6.88353 5.03381L8.58255 1.11573Z" fill="#FFCE22"/>
</svg>
